{"glyphs":{"0":{"ha":1657,"x_min":58,"x_max":1599,"o":"m 1410 848 q 1505 789 1410 848 q 1599 474 1599 729 q 1410 99 1599 218 q 829 -19 1222 -19 q 247 99 435 -19 q 58 474 58 218 q 247 848 58 729 q 829 967 435 967 q 1410 848 1222 967 m 1206 277 q 1261 305 1206 277 q 1317 474 1317 332 q 1206 670 1317 615 q 829 725 1096 725 q 451 670 561 725 q 340 474 340 615 q 451 277 340 332 q 829 222 561 222 q 1206 277 1096 222 z "},"1":{"ha":785,"x_min":42,"x_max":667,"o":"m 667 0 l 385 0 l 385 510 q 392 674 385 594 l 42 568 l 42 808 l 404 947 l 667 947 l 667 0 z "},"2":{"ha":1444,"x_min":51,"x_max":1382,"o":"m 1094 622 q 1031 704 1094 682 q 819 726 967 726 q 99 647 503 726 l 51 883 q 769 967 432 967 q 1231 897 1085 967 q 1376 669 1376 828 q 1283 459 1376 532 q 975 328 1190 386 l 622 221 q 965 232 807 232 l 1382 232 l 1382 0 l 83 0 l 83 258 l 963 511 q 1065 560 1036 538 q 1094 622 1094 582 z "},"3":{"ha":1453,"x_min":50,"x_max":1394,"o":"m 1394 243 q 1342 95 1394 150 q 1147 10 1289 40 q 753 -19 1004 -19 q 50 40 349 -19 l 88 275 q 763 222 469 222 q 1044 238 975 222 q 1113 303 1113 253 q 1076 368 1113 350 q 950 386 1040 386 l 278 386 l 278 569 l 929 569 q 1057 585 1021 569 q 1093 643 1093 600 q 1027 710 1093 694 q 763 726 961 726 q 97 683 419 726 l 60 918 q 722 967 396 967 q 1108 938 965 967 q 1313 849 1250 908 q 1375 688 1375 789 q 1328 552 1375 603 q 1185 469 1281 501 q 1394 243 1394 407 z "},"4":{"ha":1578,"x_min":26,"x_max":1524,"o":"m 1524 404 l 1524 193 l 1308 193 l 1308 0 l 1026 0 l 1026 193 l 26 193 l 26 397 l 1026 917 l 1308 917 l 1308 404 l 1524 404 m 1026 696 l 588 475 l 369 388 q 665 404 544 404 l 1026 404 l 1026 696 z "},"5":{"ha":1447,"x_min":44,"x_max":1388,"o":"m 1321 726 l 411 726 l 385 590 l 944 583 q 1281 518 1175 581 q 1388 299 1388 456 q 1328 113 1388 181 q 1123 13 1268 46 q 718 -19 978 -19 q 44 38 336 -19 l 93 253 q 757 203 375 203 q 982 212 906 203 q 1087 240 1058 221 q 1115 296 1115 258 q 1069 366 1115 347 q 908 386 1024 385 l 110 396 l 94 411 l 196 947 l 1321 947 l 1321 726 z "},"6":{"ha":1533,"x_min":57,"x_max":1475,"o":"m 1475 274 q 1317 46 1475 111 q 813 -19 1160 -19 q 231 102 404 -19 q 57 482 57 224 q 115 708 57 613 q 281 860 174 804 q 522 941 388 915 q 821 967 656 967 q 1425 896 1129 967 l 1381 668 q 821 735 1094 735 q 466 688 579 735 q 333 532 353 642 q 839 592 582 592 q 1047 583 956 592 q 1222 553 1139 575 q 1358 497 1304 532 q 1444 405 1413 461 q 1475 274 1475 349 m 828 400 q 350 353 593 400 q 491 244 385 276 q 815 211 597 211 q 1117 229 1042 211 q 1192 304 1192 247 q 1119 382 1192 364 q 828 400 1047 400 z "},"7":{"ha":1433,"x_min":60,"x_max":1389,"o":"m 686 0 l 333 0 l 839 543 q 1079 724 967 678 q 772 710 956 710 l 60 710 l 60 947 l 1389 947 l 1389 736 l 686 0 z "},"8":{"ha":1569,"x_min":83,"x_max":1488,"o":"m 456 947 q 524 957 456 947 q 785 967 592 967 q 1114 947 978 967 q 1325 890 1250 928 q 1433 807 1400 853 q 1465 701 1465 761 q 1319 486 1465 553 q 1488 263 1488 421 q 1421 101 1488 161 q 1200 10 1354 40 q 785 -19 1046 -19 q 369 10 524 -19 q 149 101 215 40 q 83 263 83 161 q 253 485 83 424 q 104 701 104 551 q 137 807 104 761 q 244 890 169 853 q 456 947 319 928 m 1042 726 q 998 731 1042 726 q 785 736 953 736 q 527 726 617 736 q 407 699 438 717 q 376 649 376 681 q 408 598 376 615 q 526 572 439 581 q 785 564 613 564 q 1044 572 957 564 q 1162 598 1131 581 q 1193 649 1193 615 q 1163 699 1193 681 q 1042 726 1132 717 m 567 226 q 606 224 567 226 q 785 222 646 222 q 1003 226 924 222 q 1132 240 1082 229 q 1199 267 1182 250 q 1215 313 1215 283 q 1198 358 1215 342 q 1131 385 1181 375 q 1001 399 1081 396 q 785 403 921 403 q 569 399 649 403 q 440 385 490 396 q 372 358 389 375 q 354 313 354 342 q 371 267 354 283 q 438 240 388 250 q 567 226 488 229 z "},"9":{"ha":1533,"x_min":57,"x_max":1475,"o":"m 1475 464 q 1436 276 1475 358 q 1329 138 1397 193 q 1163 47 1261 83 q 954 -4 1065 11 q 711 -19 843 -19 q 107 50 394 -19 l 151 279 q 711 213 426 213 q 1067 259 954 213 q 1199 414 1179 306 q 693 354 938 354 q 436 368 544 354 q 238 416 328 382 q 103 514 149 450 q 57 671 57 578 q 216 899 57 831 q 719 967 375 967 q 1301 844 1126 967 q 1475 464 1475 722 m 704 546 q 1182 593 939 546 q 1041 702 1147 669 q 717 735 935 735 q 485 726 565 735 q 373 697 406 717 q 340 640 340 678 q 413 563 340 581 q 704 546 485 546 z "},"\r":{"ha":0,"x_min":0,"x_max":0,"o":""}," ":{"ha":382,"x_min":0,"x_max":0,"o":""},"!":{"ha":397,"x_min":61,"x_max":336,"o":"m 336 676 l 303 344 l 94 344 l 61 676 l 61 947 l 336 947 l 336 676 m 333 278 l 333 0 l 63 0 l 63 278 l 333 278 z "},"\"":{"ha":751,"x_min":61,"x_max":690,"o":"m 83 639 l 61 865 l 61 1042 l 324 1042 l 324 865 l 301 639 l 83 639 m 450 639 l 428 865 l 428 1042 l 690 1042 l 690 865 l 668 639 l 450 639 z "},"#":{"ha":1589,"x_min":61,"x_max":1528,"o":"m 99 346 l 371 346 l 424 561 l 151 561 l 189 715 l 461 715 l 508 906 l 713 906 l 665 715 l 1050 715 l 1097 906 l 1301 906 l 1254 715 l 1528 715 l 1490 561 l 1217 561 l 1164 346 l 1438 346 l 1400 192 l 1126 192 l 1079 0 l 875 0 l 922 192 l 538 192 l 490 0 l 286 0 l 333 192 l 61 192 l 99 346 m 575 346 l 960 346 l 1013 561 l 628 561 l 575 346 z "},"$":{"ha":1429,"x_min":60,"x_max":1361,"o":"m 806 1086 l 806 958 q 1314 896 1094 943 l 1269 683 q 806 736 1061 724 l 806 583 l 965 574 q 1265 490 1169 564 q 1361 268 1361 415 q 1240 53 1361 119 q 806 -19 1118 -14 l 806 -149 l 614 -149 l 614 -15 q 75 56 307 0 l 115 282 q 614 210 369 228 l 614 371 l 463 379 q 153 458 246 389 q 60 664 60 528 q 191 884 60 814 q 614 961 322 954 l 614 1086 l 806 1086 m 449 604 l 614 594 l 614 742 q 427 735 486 742 q 347 715 368 729 q 326 671 326 701 q 352 622 326 633 q 449 604 378 610 m 985 349 l 806 360 l 806 203 l 831 203 q 1044 217 993 203 q 1094 276 1094 232 q 1072 331 1094 318 q 985 349 1049 343 z "},"%":{"ha":1792,"x_min":53,"x_max":1736,"o":"m 53 743 q 141 914 53 861 q 407 967 229 967 q 673 915 586 967 q 760 743 760 863 q 672 572 760 625 q 407 519 585 519 q 141 573 229 519 q 53 743 53 626 m 499 0 l 254 0 l 1263 947 l 1508 947 l 499 0 m 560 678 q 579 687 560 678 q 599 743 599 696 q 559 808 599 790 q 407 826 519 826 q 254 808 294 826 q 214 743 214 790 q 253 678 214 696 q 407 661 293 661 q 560 678 521 661 m 1029 219 q 1117 392 1029 339 q 1383 444 1206 444 q 1649 392 1561 444 q 1736 219 1736 339 q 1649 49 1736 101 q 1383 -4 1561 -4 q 1117 49 1206 -4 q 1029 219 1029 103 m 1536 155 q 1556 164 1536 155 q 1575 219 1575 172 q 1535 285 1575 267 q 1383 303 1496 303 q 1231 285 1271 303 q 1190 219 1190 267 q 1230 155 1190 172 q 1383 138 1269 138 q 1536 155 1497 138 z "},"&":{"ha":1607,"x_min":67,"x_max":1572,"o":"m 1572 379 l 1392 379 l 1392 63 q 685 -18 1064 -18 q 313 11 449 -18 q 122 97 176 40 q 67 251 67 154 q 240 467 67 413 q 82 690 82 524 q 220 897 82 832 q 665 961 358 961 q 1299 910 1031 961 l 1256 683 q 675 719 1000 719 q 410 704 478 719 q 343 638 343 689 q 383 578 343 593 q 522 563 424 563 l 1572 563 l 1572 379 m 724 213 q 1156 244 956 213 l 1156 379 l 528 379 q 373 363 415 379 q 331 300 331 346 q 361 246 331 264 q 474 220 392 228 q 724 213 556 213 z "},"'":{"ha":385,"x_min":61,"x_max":324,"o":"m 83 639 l 61 865 l 61 1042 l 324 1042 l 324 865 l 301 639 l 83 639 z "},"(":{"ha":653,"x_min":115,"x_max":561,"o":"m 392 1079 l 561 976 q 422 707 474 843 q 371 399 371 571 q 422 92 371 228 q 561 -178 474 -44 l 392 -281 q 195 37 275 -140 q 115 399 115 214 q 195 762 115 585 q 392 1079 275 939 z "},")":{"ha":653,"x_min":92,"x_max":538,"o":"m 281 399 q 230 708 281 571 q 92 976 179 844 l 261 1079 q 458 760 378 938 q 538 399 538 583 q 458 38 538 214 q 261 -281 378 -139 l 92 -178 q 230 91 179 -46 q 281 399 281 228 z "},"*":{"ha":819,"x_min":42,"x_max":779,"o":"m 200 547 l 319 653 l 160 671 l 42 710 l 96 879 l 215 840 l 356 760 l 322 918 l 322 1042 l 500 1042 l 500 917 l 467 760 l 606 840 l 724 879 l 779 710 l 660 671 l 501 654 l 619 546 l 693 444 l 549 340 l 476 442 l 411 589 l 343 440 l 271 340 l 128 444 l 200 547 z "},"+":{"ha":1049,"x_min":81,"x_max":968,"o":"m 418 161 l 418 353 l 81 353 l 81 554 l 418 554 l 418 746 l 629 746 l 629 554 l 968 554 l 968 353 l 629 353 l 629 161 l 418 161 z "},",":{"ha":394,"x_min":39,"x_max":333,"o":"m 39 -192 l 57 -62 q 121 -68 107 -68 q 168 -59 156 -68 q 181 -24 181 -50 l 181 0 l 61 0 l 61 278 l 333 278 l 333 -31 q 283 -158 333 -112 q 132 -203 233 -203 q 39 -192 83 -203 z "},"-":{"ha":740,"x_min":53,"x_max":688,"o":"m 688 268 l 53 268 l 53 474 l 688 474 l 688 268 z "},".":{"ha":394,"x_min":61,"x_max":333,"o":"m 333 278 l 333 0 l 61 0 l 61 278 l 333 278 z "},"/":{"ha":878,"x_min":-3,"x_max":879,"o":"m 879 971 l 228 -229 l -3 -229 l 649 971 l 879 971 z "},":":{"ha":414,"x_min":71,"x_max":343,"o":"m 343 708 l 343 431 l 71 431 l 71 708 l 343 708 m 343 278 l 343 0 l 71 0 l 71 278 l 343 278 z "},";":{"ha":414,"x_min":49,"x_max":343,"o":"m 343 708 l 343 431 l 71 431 l 71 708 l 343 708 m 49 -192 l 67 -62 q 131 -68 117 -68 q 178 -59 167 -68 q 190 -24 190 -50 l 190 0 l 71 0 l 71 278 l 343 278 l 343 -31 q 293 -158 343 -112 q 143 -203 243 -203 q 49 -192 96 -203 z "},"<":{"ha":1010,"x_min":61,"x_max":949,"o":"m 949 75 l 61 317 l 61 599 l 949 840 l 949 606 l 300 458 l 949 310 l 949 75 z "},"=":{"ha":1039,"x_min":61,"x_max":978,"o":"m 978 517 l 61 517 l 61 717 l 978 717 l 978 517 m 978 190 l 61 190 l 61 392 l 978 392 l 978 190 z "},">":{"ha":1010,"x_min":61,"x_max":949,"o":"m 61 840 l 949 599 l 949 317 l 61 75 l 61 310 l 710 458 l 61 606 l 61 840 z "},"?":{"ha":1142,"x_min":33,"x_max":1094,"o":"m 665 356 l 247 356 l 247 540 l 653 540 q 776 560 739 540 q 813 632 813 581 q 765 706 813 688 q 588 725 718 725 q 71 688 328 725 l 33 904 q 568 951 324 951 q 975 883 856 951 q 1094 653 1094 815 q 992 431 1094 506 q 665 356 889 356 m 515 257 l 515 0 l 243 0 l 243 257 l 515 257 z "},"@":{"ha":1981,"x_min":57,"x_max":1924,"o":"m 1386 -275 q 925 -332 1176 -332 q 278 -164 500 -332 q 57 326 57 4 q 103 573 57 463 q 231 759 149 683 q 433 885 314 835 q 692 959 551 936 q 999 982 833 982 q 1290 963 1157 982 q 1542 901 1424 944 q 1744 790 1661 857 q 1876 620 1828 724 q 1924 385 1924 517 q 1835 101 1924 200 q 1576 3 1746 3 q 1283 119 1363 3 q 817 1 1039 1 q 533 78 639 1 q 426 313 426 156 q 553 564 426 488 q 911 640 679 640 q 1475 594 1178 640 l 1475 328 q 1506 217 1475 250 q 1604 185 1538 185 q 1700 228 1672 185 q 1728 375 1728 272 q 1706 521 1728 457 q 1630 638 1683 585 q 1492 726 1576 692 q 1281 781 1408 761 q 988 800 1154 800 q 253 328 253 800 q 409 -30 253 92 q 908 -151 565 -151 q 1356 -92 1138 -151 l 1386 -275 m 1242 276 l 1242 436 q 888 453 1058 453 q 715 421 771 453 q 660 321 660 389 q 705 224 660 254 q 851 194 750 194 q 1242 260 1025 194 l 1242 276 z "},"A":{"ha":1578,"x_min":-17,"x_max":1593,"o":"m 1251 0 l 1138 183 l 438 183 l 322 0 l -17 0 l 601 947 l 976 947 l 1593 0 l 1251 0 m 560 379 l 1014 379 l 788 743 l 560 379 z "},"B":{"ha":1500,"x_min":75,"x_max":1457,"o":"m 1131 0 l 75 0 l 75 947 l 1129 947 q 1422 715 1422 947 q 1263 499 1422 540 q 1408 417 1360 476 q 1457 253 1457 358 q 1376 60 1457 119 q 1131 0 1296 0 m 1050 735 l 353 735 l 353 568 l 1057 568 q 1161 651 1161 568 q 1135 715 1161 696 q 1050 735 1108 735 m 1081 369 l 353 369 l 353 196 l 1074 196 q 1167 215 1139 196 q 1196 283 1196 233 q 1167 350 1196 331 q 1081 369 1138 369 z "},"C":{"ha":1461,"x_min":47,"x_max":1428,"o":"m 329 472 q 365 331 329 382 q 497 251 400 279 q 771 224 594 224 q 1378 294 1018 224 l 1428 60 q 761 -18 1090 -18 q 215 104 382 -18 q 47 472 47 226 q 215 840 47 718 q 761 961 382 961 q 1428 883 1090 961 l 1378 649 q 771 719 1018 719 q 497 692 594 719 q 365 613 400 664 q 329 472 329 561 z "},"D":{"ha":1588,"x_min":75,"x_max":1540,"o":"m 997 0 l 75 0 l 75 947 l 997 947 q 1400 839 1260 947 q 1540 475 1540 731 q 1502 244 1540 339 q 1389 98 1464 150 q 1219 23 1314 46 q 997 0 1125 0 m 357 706 l 357 242 l 971 242 q 1186 290 1124 242 q 1249 475 1249 339 q 1186 658 1249 610 q 971 706 1124 706 l 357 706 z "},"E":{"ha":1400,"x_min":75,"x_max":1339,"o":"m 1339 0 l 75 0 l 75 947 l 1339 947 l 1339 726 l 357 726 l 357 569 l 1313 569 l 1313 388 l 357 388 l 357 221 l 1339 221 l 1339 0 z "},"F":{"ha":1376,"x_min":75,"x_max":1339,"o":"m 357 0 l 75 0 l 75 947 l 1339 947 l 1339 706 l 357 706 l 357 532 l 1313 532 l 1313 310 l 357 310 l 357 0 z "},"G":{"ha":1493,"x_min":47,"x_max":1432,"o":"m 223 105 q 135 166 223 105 q 47 472 47 226 q 223 840 47 718 q 796 961 399 961 q 1432 883 1104 961 l 1381 649 q 775 719 1017 719 q 499 692 597 719 q 365 614 401 665 q 329 472 329 563 q 365 332 329 383 q 499 253 401 281 q 775 225 597 225 q 1140 254 915 225 l 1140 485 l 1432 485 l 1432 61 q 796 -17 1104 -17 q 223 105 399 -17 z "},"H":{"ha":1533,"x_min":75,"x_max":1458,"o":"m 357 0 l 75 0 l 75 947 l 357 947 l 357 606 l 1176 606 l 1176 947 l 1458 947 l 1458 0 l 1176 0 l 1176 365 l 357 365 l 357 0 z "},"I":{"ha":432,"x_min":75,"x_max":357,"o":"m 357 0 l 75 0 l 75 947 l 357 947 l 357 0 z "},"J":{"ha":1039,"x_min":10,"x_max":978,"o":"m 383 221 q 633 267 571 221 q 696 424 696 313 l 696 947 l 978 947 l 978 422 q 949 237 978 315 q 853 99 919 158 q 672 10 788 40 q 393 -21 557 -21 q 10 33 175 -21 l 74 263 q 383 221 214 221 z "},"K":{"ha":1513,"x_min":75,"x_max":1451,"o":"m 357 0 l 75 0 l 75 947 l 357 947 l 357 474 l 524 608 l 1036 947 l 1424 947 l 853 546 l 1451 0 l 1078 0 l 633 406 l 357 224 l 357 0 z "},"L":{"ha":1325,"x_min":75,"x_max":1297,"o":"m 357 242 l 1297 242 l 1297 0 l 75 0 l 75 947 l 357 947 l 357 242 z "},"M":{"ha":1963,"x_min":75,"x_max":1888,"o":"m 357 0 l 75 0 l 75 947 l 418 947 l 985 232 l 1550 947 l 1888 947 l 1888 0 l 1606 0 l 1606 613 l 1124 0 l 839 0 l 357 613 l 357 0 z "},"N":{"ha":1568,"x_min":75,"x_max":1493,"o":"m 357 0 l 75 0 l 75 947 l 397 947 l 1211 307 l 1211 947 l 1493 947 l 1493 0 l 1178 0 l 357 651 l 357 0 z "},"O":{"ha":1650,"x_min":47,"x_max":1603,"o":"m 1417 99 q 1324 40 1417 99 q 825 -19 1231 -19 q 233 99 419 -19 q 47 474 47 218 q 233 848 47 729 q 825 967 419 967 q 1417 848 1231 967 q 1603 474 1603 729 q 1417 99 1603 218 m 825 222 q 1210 278 1106 222 q 1315 474 1315 333 q 1210 669 1315 614 q 825 725 1106 725 q 436 669 543 725 q 329 474 329 613 q 436 278 329 335 q 825 222 543 222 z "},"P":{"ha":1456,"x_min":75,"x_max":1424,"o":"m 75 0 l 75 947 l 1028 947 q 1424 610 1424 947 q 1028 243 1424 243 l 357 243 l 357 0 l 75 0 m 996 706 l 357 706 l 357 483 l 996 483 q 1099 509 1065 483 q 1132 594 1132 535 q 1099 681 1132 657 q 996 706 1067 706 z "},"Q":{"ha":1650,"x_min":47,"x_max":1603,"o":"m 825 -19 q 233 99 419 -19 q 47 474 47 218 q 233 848 47 729 q 825 967 419 967 q 1417 848 1231 967 q 1603 474 1603 729 q 1500 169 1603 283 q 1181 11 1397 56 l 1450 -254 l 1121 -254 l 878 -19 l 825 -19 m 825 222 q 1210 278 1106 222 q 1315 474 1315 333 q 1210 669 1315 614 q 825 725 1106 725 q 436 669 543 725 q 329 474 329 613 q 436 278 329 335 q 825 222 543 222 z "},"R":{"ha":1468,"x_min":75,"x_max":1419,"o":"m 357 0 l 75 0 l 75 947 l 1024 947 q 1419 617 1419 947 q 1086 292 1419 318 l 1025 290 l 1100 244 l 1411 0 l 1057 0 l 717 275 l 357 275 l 357 0 m 357 706 l 357 486 l 996 486 q 1097 511 1065 486 q 1128 594 1128 536 q 1097 681 1128 657 q 996 706 1067 706 l 357 706 z "},"S":{"ha":1406,"x_min":53,"x_max":1353,"o":"m 1353 269 q 1299 105 1353 165 q 1113 13 1246 44 q 749 -18 981 -18 q 388 3 576 -18 q 68 57 200 25 l 108 283 q 824 203 472 203 q 1036 218 986 203 q 1086 278 1086 233 q 1063 331 1086 318 q 978 350 1040 344 l 454 381 q 146 460 239 390 q 53 665 53 529 q 200 894 53 824 q 678 964 347 964 q 990 945 808 964 q 1307 897 1171 926 l 1261 685 q 613 743 967 743 q 372 730 425 743 q 319 672 319 717 q 346 622 319 635 q 442 606 372 610 l 958 575 q 1258 490 1163 564 q 1353 269 1353 417 z "},"T":{"ha":1464,"x_min":29,"x_max":1435,"o":"m 592 706 l 29 706 l 29 947 l 1435 947 l 1435 706 l 874 706 l 874 0 l 592 0 l 592 706 z "},"U":{"ha":1492,"x_min":61,"x_max":1431,"o":"m 1149 501 l 1149 947 l 1431 947 l 1431 442 q 1251 96 1431 207 q 746 -15 1072 -15 q 240 96 419 -15 q 61 442 61 207 l 61 947 l 343 947 l 343 501 q 438 288 343 351 q 746 225 532 225 q 1054 288 960 225 q 1149 501 1149 351 z "},"V":{"ha":1621,"x_min":10,"x_max":1611,"o":"m 622 0 l 10 947 l 353 947 l 814 231 l 1274 947 l 1611 947 l 999 0 l 622 0 z "},"W":{"ha":2285,"x_min":24,"x_max":2261,"o":"m 446 0 l 24 947 l 342 947 l 635 257 l 974 947 l 1310 947 l 1657 257 l 1943 947 l 2261 947 l 1839 0 l 1478 0 l 1143 674 l 807 0 l 446 0 z "},"X":{"ha":1714,"x_min":42,"x_max":1674,"o":"m 43 947 l 467 947 l 863 622 l 1261 947 l 1668 947 l 1085 475 l 1674 0 l 1246 0 l 857 321 l 461 0 l 42 0 l 632 471 l 43 947 z "},"Y":{"ha":1571,"x_min":1,"x_max":1568,"o":"m 643 351 l 1 947 l 363 947 l 788 564 l 1213 947 l 1568 947 l 925 350 l 925 0 l 643 0 l 643 351 z "},"Z":{"ha":1514,"x_min":65,"x_max":1450,"o":"m 1450 242 l 1450 0 l 65 0 l 65 221 l 692 569 q 1106 714 868 650 l 646 694 l 88 694 l 88 936 l 1443 936 l 1443 714 l 911 400 q 422 221 726 310 l 899 242 l 1450 242 z "},"[":{"ha":683,"x_min":131,"x_max":601,"o":"m 601 -228 l 131 -228 l 131 1042 l 601 1042 l 601 849 l 367 849 l 367 -35 l 601 -35 l 601 -228 z "},"\\":{"ha":878,"x_min":-3,"x_max":879,"o":"m 879 -229 l 649 -229 l -3 971 l 228 971 l 879 -229 z "},"]":{"ha":683,"x_min":82,"x_max":553,"o":"m 553 -228 l 82 -228 l 82 -35 l 317 -35 l 317 849 l 82 849 l 82 1042 l 553 1042 l 553 -228 z "},"^":{"ha":1029,"x_min":65,"x_max":964,"o":"m 356 906 l 675 906 l 964 238 l 694 238 l 515 690 l 335 238 l 65 238 l 356 906 z "},"_":{"ha":1113,"x_min":53,"x_max":1060,"o":"m 1060 -215 l 53 -215 l 53 -49 l 1060 -49 l 1060 -215 z "},"`":{"ha":665,"x_min":85,"x_max":607,"o":"m 354 817 l 85 1026 l 410 1026 l 607 817 l 354 817 z "},"a":{"ha":1254,"x_min":47,"x_max":1189,"o":"m 1189 676 l 1188 675 l 1189 675 l 1189 0 l 958 0 l 939 94 q 467 -14 688 -14 q 47 347 47 -14 q 85 526 47 451 q 197 642 124 600 q 365 703 269 685 q 583 722 460 722 q 1189 676 843 722 m 310 357 q 357 238 310 272 q 518 203 404 203 q 926 272 686 203 l 926 493 q 557 511 736 511 q 370 475 431 511 q 310 357 310 439 z "},"b":{"ha":1264,"x_min":75,"x_max":1217,"o":"m 75 0 l 75 1042 l 338 1042 l 338 647 q 789 726 568 726 q 1217 360 1217 726 q 763 0 1217 0 l 75 0 m 765 515 q 338 439 606 515 l 338 211 l 739 211 q 901 247 849 211 q 954 361 954 282 q 910 479 954 443 q 765 515 865 515 z "},"c":{"ha":1179,"x_min":47,"x_max":1132,"o":"m 47 356 q 190 638 47 550 q 649 726 332 726 q 1132 672 903 726 l 1079 463 q 610 506 867 506 q 376 474 442 506 q 310 356 310 442 q 375 237 310 268 q 610 206 440 206 q 1079 249 867 206 l 1132 39 q 649 -15 903 -15 q 190 74 333 -15 q 47 356 47 163 z "},"d":{"ha":1264,"x_min":47,"x_max":1189,"o":"m 926 1042 l 1189 1042 l 1189 0 l 958 0 l 940 97 q 486 -14 690 -14 q 159 70 271 -14 q 47 347 47 154 q 183 635 47 547 q 564 722 318 722 q 926 688 740 722 l 926 1042 m 310 351 q 360 237 310 271 q 528 203 410 203 q 926 269 696 203 l 926 488 q 547 511 703 511 q 369 473 428 511 q 310 351 310 435 z "},"e":{"ha":1214,"x_min":47,"x_max":1167,"o":"m 649 188 q 1097 224 876 188 l 1150 35 q 625 -19 936 -19 q 185 69 322 -19 q 47 354 47 157 q 188 637 47 547 q 608 726 329 726 q 1167 408 1167 726 q 1160 294 1167 339 l 307 294 q 397 209 324 231 q 649 188 471 188 m 599 551 q 386 525 451 551 q 306 431 321 499 l 907 431 q 828 524 894 496 q 599 551 763 551 z "},"f":{"ha":868,"x_min":17,"x_max":993,"o":"m 421 0 l 157 0 l 157 497 l 17 497 l 17 708 l 157 708 q 647 1061 169 1061 q 993 1029 801 1061 l 944 835 q 636 857 761 857 q 469 824 517 857 q 421 711 421 792 l 421 708 l 860 708 l 860 497 l 421 497 l 421 0 z "},"g":{"ha":1257,"x_min":47,"x_max":1199,"o":"m 1199 675 l 1199 126 q 1052 -176 1199 -82 q 590 -271 906 -271 q 90 -206 314 -271 l 144 -11 q 607 -68 376 -68 q 878 -20 803 -68 q 949 128 954 28 q 499 56 728 56 q 160 132 274 56 q 47 382 47 208 q 187 644 47 567 q 593 722 326 722 q 1199 676 853 722 l 1197 675 l 1199 675 m 310 382 q 358 286 310 315 q 518 257 406 257 q 936 299 732 257 l 936 493 q 557 511 714 511 q 370 481 431 511 q 310 382 310 451 z "},"h":{"ha":1261,"x_min":75,"x_max":1204,"o":"m 75 0 l 75 1042 l 338 1042 l 338 638 q 808 726 588 726 q 1104 647 1004 726 q 1204 393 1204 567 l 1204 0 l 942 0 l 942 349 q 724 508 942 508 q 338 446 565 508 l 338 0 l 75 0 z "},"i":{"ha":413,"x_min":75,"x_max":338,"o":"m 338 1015 l 338 799 l 75 799 l 75 1015 l 338 1015 m 75 0 l 75 708 l 338 708 l 338 0 l 75 0 z "},"j":{"ha":413,"x_min":-60,"x_max":338,"o":"m 338 1015 l 338 799 l 75 799 l 75 1015 l 338 1015 m 213 -253 l -60 -253 q 75 138 75 -71 l 75 708 l 338 708 l 338 136 q 213 -253 338 -90 z "},"k":{"ha":1200,"x_min":75,"x_max":1226,"o":"m 338 1042 l 338 481 l 542 481 l 858 708 l 1208 708 l 763 374 l 1226 0 l 874 0 l 538 267 l 338 267 l 338 0 l 75 0 l 75 1042 l 338 1042 z "},"l":{"ha":413,"x_min":75,"x_max":338,"o":"m 338 1042 l 338 0 l 75 0 l 75 1042 l 338 1042 z "},"m":{"ha":1954,"x_min":75,"x_max":1896,"o":"m 75 0 l 75 707 l 306 707 l 321 629 q 732 726 543 726 q 1053 613 961 726 q 1513 726 1307 726 q 1799 647 1703 726 q 1896 393 1896 567 l 1896 0 l 1633 0 l 1633 349 q 1426 508 1633 508 q 1114 451 1300 508 q 1117 393 1117 415 l 1117 0 l 854 0 l 854 349 q 647 508 854 508 q 338 450 526 508 l 338 0 l 75 0 z "},"n":{"ha":1261,"x_min":75,"x_max":1204,"o":"m 75 0 l 75 708 l 306 708 l 321 624 q 808 726 582 726 q 1104 647 1004 726 q 1204 393 1204 567 l 1204 0 l 942 0 l 942 349 q 724 508 942 508 q 338 446 565 508 l 338 0 l 75 0 z "},"o":{"ha":1336,"x_min":47,"x_max":1289,"o":"m 199 72 q 123 117 199 72 q 47 356 47 163 q 199 639 47 549 q 668 729 351 729 q 1136 639 983 729 q 1289 356 1289 549 q 1136 72 1289 163 q 668 -18 983 -18 q 199 72 351 -18 m 385 474 q 348 457 385 474 q 310 356 310 440 q 385 237 310 271 q 668 203 461 203 q 951 237 875 203 q 1026 356 1026 271 q 951 474 1026 440 q 668 508 875 508 q 385 474 461 508 z "},"p":{"ha":1264,"x_min":75,"x_max":1217,"o":"m 338 -257 l 75 -257 l 75 708 l 306 708 l 324 611 q 797 722 574 722 q 1217 360 1217 722 q 710 -14 1217 -14 q 338 21 551 -14 l 338 -257 m 749 506 q 338 436 586 506 l 338 221 q 722 197 565 197 q 898 234 842 197 q 954 356 954 271 q 908 471 954 436 q 749 506 861 506 z "},"q":{"ha":1247,"x_min":47,"x_max":1189,"o":"m 1189 676 l 1188 675 l 1189 675 l 1189 -251 l 926 -251 l 926 89 q 467 -14 681 -14 q 47 346 47 -14 q 183 636 47 550 q 574 722 318 722 q 1189 676 865 722 m 310 357 q 357 238 310 272 q 518 203 404 203 q 926 272 686 203 l 926 493 q 547 511 701 511 q 366 475 422 511 q 310 357 310 439 z "},"r":{"ha":881,"x_min":75,"x_max":847,"o":"m 75 0 l 75 708 l 306 708 l 326 588 q 847 726 594 726 l 847 490 q 338 408 565 490 l 338 0 l 75 0 z "},"s":{"ha":1140,"x_min":47,"x_max":1108,"o":"m 1108 201 q 992 28 1108 75 q 604 -19 875 -19 q 61 42 306 -19 l 106 211 q 651 156 365 156 q 820 165 776 156 q 864 203 864 174 q 835 242 864 232 q 718 257 806 251 l 372 276 q 121 339 194 286 q 47 508 47 392 q 174 683 47 636 q 575 729 300 729 q 1064 683 785 729 l 1025 513 q 514 558 772 558 q 336 549 381 558 q 292 511 292 540 q 305 481 292 492 q 338 468 318 471 q 400 463 358 465 l 746 442 q 1021 377 933 431 q 1108 201 1108 324 z "},"t":{"ha":1053,"x_min":13,"x_max":1038,"o":"m 164 333 l 164 497 l 13 497 l 13 708 l 171 708 l 217 892 l 428 892 l 428 708 l 981 708 l 981 497 l 428 497 l 428 361 q 474 236 428 269 q 644 203 519 203 q 988 243 786 203 l 1038 35 q 621 -19 818 -19 q 276 62 388 -19 q 164 333 164 143 z "},"u":{"ha":1256,"x_min":58,"x_max":1190,"o":"m 58 314 l 58 708 l 319 708 l 319 358 q 543 199 319 199 q 929 264 696 199 l 929 708 l 1190 708 l 1190 0 l 961 0 l 946 85 q 457 -19 679 -19 q 159 60 260 -19 q 58 314 58 140 z "},"v":{"ha":1338,"x_min":4,"x_max":1335,"o":"m 1335 708 l 814 0 l 486 0 l 4 708 l 314 708 l 653 207 l 1026 708 l 1335 708 z "},"w":{"ha":1893,"x_min":4,"x_max":1889,"o":"m 774 708 l 1104 708 l 1378 214 l 1611 708 l 1889 708 l 1526 0 l 1224 0 l 933 518 l 643 0 l 342 0 l 4 708 l 278 708 l 506 217 l 774 708 z "},"x":{"ha":1357,"x_min":8,"x_max":1354,"o":"m 376 0 l 8 0 l 496 360 l 10 708 l 383 708 l 683 492 l 976 708 l 1344 708 l 864 360 l 1354 0 l 981 0 l 676 226 l 376 0 z "},"y":{"ha":1285,"x_min":58,"x_max":1210,"o":"m 58 414 l 58 708 l 319 708 l 319 454 q 374 330 319 365 q 572 294 428 294 q 947 332 747 294 l 947 708 l 1210 708 l 1210 157 q 1074 -175 1210 -79 q 631 -271 938 -271 q 111 -206 347 -271 l 157 -6 q 649 -68 411 -68 q 899 -20 829 -68 q 960 144 968 28 l 957 151 q 510 79 710 79 q 162 158 265 79 q 58 414 58 236 z "},"z":{"ha":1197,"x_min":53,"x_max":1144,"o":"m 1144 181 l 1144 0 l 53 0 l 53 181 l 404 375 q 846 526 579 463 l 67 526 l 67 708 l 1144 708 l 1144 526 l 832 349 q 739 304 789 326 q 649 267 689 282 q 562 237 610 253 q 487 213 514 221 q 421 194 460 206 q 375 181 382 183 l 1144 181 z "},"{":{"ha":825,"x_min":32,"x_max":794,"o":"m 32 282 l 32 531 q 184 558 139 531 q 229 667 229 585 l 229 763 q 571 1056 229 1056 q 794 1033 694 1056 l 764 815 q 614 832 664 832 q 501 805 536 832 q 465 710 465 778 l 465 603 q 294 407 465 431 q 465 211 465 383 l 465 103 q 501 8 465 35 q 614 -19 536 -19 q 764 -3 644 -19 l 794 -221 q 571 -243 661 -243 q 316 -169 403 -243 q 229 50 229 -94 l 229 147 q 184 255 229 228 q 32 282 139 282 z "},"|":{"ha":361,"x_min":75,"x_max":288,"o":"m 288 -229 l 75 -229 l 75 1036 l 288 1036 l 288 -229 z "},"}":{"ha":825,"x_min":32,"x_max":794,"o":"m 794 531 l 794 282 q 642 255 688 282 q 596 147 596 228 l 596 50 q 509 -169 596 -94 q 256 -243 422 -243 q 32 -221 161 -243 l 61 -3 q 213 -19 181 -19 q 326 8 290 -19 q 361 103 361 35 l 361 211 q 532 407 361 383 q 361 603 361 431 l 361 710 q 326 805 361 778 q 213 832 290 832 q 61 815 161 832 l 32 1033 q 256 1056 129 1056 q 596 763 596 1056 l 596 667 q 642 558 596 586 q 794 531 688 531 z "},"~":{"ha":1074,"x_min":42,"x_max":1032,"o":"m 747 324 q 542 357 669 324 q 328 390 414 390 q 107 322 228 390 l 42 492 q 325 599 168 599 q 532 565 400 599 q 744 532 664 532 q 965 601 842 532 l 1032 432 q 747 324 907 324 z "}," ":{"ha":382,"x_min":0,"x_max":0,"o":""},"¡":{"ha":397,"x_min":61,"x_max":336,"o":"m 63 431 l 63 708 l 335 708 l 335 431 l 63 431 m 61 32 l 94 364 l 303 364 l 336 32 l 336 -239 l 61 -239 l 61 32 z "},"¢":{"ha":1174,"x_min":47,"x_max":1132,"o":"m 47 421 q 165 686 47 597 q 542 789 283 775 l 542 947 l 733 947 l 733 790 q 1132 736 939 781 l 1079 526 q 733 567 913 560 l 733 272 q 1079 313 913 279 l 1132 103 q 733 50 947 58 l 733 -108 l 542 -108 l 542 51 q 165 154 283 65 q 47 421 47 243 m 310 421 q 362 309 310 342 q 542 271 414 276 l 542 568 q 362 530 414 563 q 310 421 310 497 z "},"£":{"ha":1636,"x_min":51,"x_max":1578,"o":"m 51 -19 l 51 210 q 242 260 129 246 l 242 378 l 51 378 l 51 550 l 244 550 q 429 852 264 753 q 935 951 594 951 q 1565 879 1258 951 l 1514 646 q 944 711 1175 711 q 644 674 739 711 q 529 550 549 638 l 1315 550 l 1315 378 l 524 378 l 524 258 q 801 229 563 256 q 1157 203 1039 203 q 1517 257 1317 203 l 1578 39 q 1161 -29 1421 -29 q 755 4 1025 -29 q 367 38 485 38 q 51 -19 206 38 z "},"¤":{"ha":1204,"x_min":118,"x_max":1088,"o":"m 118 418 q 268 671 118 597 l 119 811 l 340 811 l 438 719 q 604 731 515 731 q 767 721 682 731 l 864 811 l 1085 811 l 936 672 q 1088 418 1088 597 q 936 165 1088 242 l 1085 25 l 872 25 l 775 118 q 604 106 700 106 q 428 118 506 106 l 331 25 l 119 25 l 268 165 q 118 418 118 242 m 804 310 q 835 327 804 310 q 865 418 865 343 q 805 526 865 493 q 606 558 744 558 q 403 526 465 558 q 342 418 342 493 q 403 310 342 343 q 603 278 464 278 q 804 310 743 278 z "},"¥":{"ha":1571,"x_min":1,"x_max":1568,"o":"m 1386 108 l 925 108 l 925 0 l 643 0 l 643 108 l 185 108 l 185 271 l 643 271 l 643 343 l 185 343 l 185 506 l 476 506 l 1 947 l 363 947 l 788 564 l 1213 947 l 1568 947 l 1093 506 l 1386 506 l 1386 343 l 925 343 l 925 271 l 1386 271 l 1386 108 z "},"¦":{"ha":311,"x_min":75,"x_max":236,"o":"m 236 1024 l 236 551 l 75 551 l 75 1024 l 236 1024 m 75 -229 l 75 243 l 236 243 l 236 -229 l 75 -229 z "},"§":{"ha":1156,"x_min":47,"x_max":1108,"o":"m 581 -15 q 92 28 353 -15 l 131 222 q 642 171 414 171 q 819 182 774 171 q 864 228 864 193 q 840 266 864 256 q 756 281 815 276 l 324 313 q 113 356 178 324 q 47 464 47 388 q 235 608 47 582 q 97 661 147 621 q 47 769 47 701 q 174 919 47 876 q 575 963 301 963 q 1064 919 803 963 l 1025 725 q 504 776 753 776 q 335 765 378 776 q 292 719 292 754 q 316 681 292 692 q 400 667 340 671 l 832 635 q 1043 593 978 624 q 1108 489 1108 563 q 921 339 1108 363 q 1058 286 1008 326 q 1108 178 1108 246 q 981 28 1108 71 q 581 -15 854 -15 m 399 424 l 744 399 q 851 408 819 393 q 883 461 883 422 q 856 504 883 492 q 757 522 828 517 l 410 547 q 303 539 335 553 q 272 486 272 525 q 300 442 272 454 q 399 424 328 429 z "},"¨":{"ha":715,"x_min":61,"x_max":654,"o":"m 290 1022 l 290 807 l 61 807 l 61 1022 l 290 1022 m 654 1022 l 654 807 l 424 807 l 424 1022 l 654 1022 z "},"©":{"ha":1667,"x_min":79,"x_max":1588,"o":"m 833 965 q 1408 840 1229 965 q 1588 453 1588 714 q 1408 66 1588 192 q 833 -60 1228 -60 q 260 67 440 -60 q 79 454 79 193 q 260 840 79 714 q 833 965 440 965 m 469 117 q 536 96 469 117 q 833 75 603 75 q 1198 117 1064 75 q 1385 240 1332 160 q 1438 453 1438 319 q 1385 666 1438 586 q 1198 788 1332 746 q 833 831 1064 831 q 470 788 604 831 q 283 666 336 746 q 229 454 229 586 q 283 240 229 321 q 469 117 336 160 m 1219 529 q 828 560 1063 560 q 610 537 667 560 q 554 451 554 514 q 610 367 554 389 q 828 344 667 344 q 1219 375 1063 344 l 1244 224 q 828 179 1036 179 q 465 242 572 179 q 357 451 357 306 q 464 660 357 597 q 828 724 571 724 q 1244 681 1032 724 l 1219 529 z "},"ª":{"ha":981,"x_min":57,"x_max":913,"o":"m 735 443 l 722 508 q 385 432 540 432 q 57 693 57 432 q 161 901 57 839 q 456 963 265 963 q 913 921 665 963 l 913 443 l 735 443 m 439 807 q 301 783 346 807 q 256 697 256 760 q 295 615 256 638 q 419 592 335 592 q 713 636 556 592 l 713 789 q 439 807 571 807 z "},"«":{"ha":1146,"x_min":51,"x_max":1096,"o":"m 560 -7 l 51 239 l 51 481 l 560 726 l 560 511 l 242 360 l 560 208 l 560 -7 m 1096 -7 l 586 239 l 586 481 l 1096 726 l 1096 511 l 778 360 l 1096 208 l 1096 -7 z "},"¬":{"ha":989,"x_min":51,"x_max":938,"o":"m 681 203 l 681 439 l 51 439 l 51 660 l 938 660 l 938 203 l 681 203 z "},"­":{"ha":740,"x_min":53,"x_max":688,"o":"m 688 268 l 53 268 l 53 474 l 688 474 l 688 268 z "},"®":{"ha":1667,"x_min":79,"x_max":1588,"o":"m 833 965 q 1408 840 1229 965 q 1588 453 1588 714 q 1408 66 1588 192 q 833 -60 1228 -60 q 260 67 440 -60 q 79 454 79 193 q 260 840 79 714 q 833 965 440 965 m 833 75 q 1199 113 1068 75 q 1384 231 1331 151 q 1438 453 1438 311 q 1384 674 1438 594 q 1199 792 1331 754 q 833 831 1068 831 q 469 792 600 831 q 283 674 338 754 q 229 454 229 594 q 359 159 229 243 q 833 75 489 75 m 658 346 l 658 181 l 464 181 l 464 722 l 969 722 q 1185 682 1121 722 q 1250 531 1250 642 q 1187 393 1250 433 q 1003 353 1124 353 l 1094 288 l 1236 181 l 997 181 l 794 346 l 658 346 m 963 582 l 658 582 l 658 456 l 963 456 q 1035 470 1014 456 q 1057 519 1057 485 q 1035 568 1057 554 q 963 582 1014 582 z "},"¯":{"ha":692,"x_min":61,"x_max":631,"o":"m 631 844 l 61 844 l 61 1004 l 631 1004 l 631 844 z "},"°":{"ha":946,"x_min":51,"x_max":894,"o":"m 475 967 q 790 900 686 967 q 894 688 894 833 q 790 472 894 540 q 475 404 686 404 q 157 472 263 404 q 51 688 51 540 q 157 900 51 833 q 475 967 263 967 m 264 688 q 311 599 264 622 q 474 575 358 575 q 635 599 589 575 q 682 688 682 622 q 635 775 682 751 q 474 799 589 799 q 312 775 360 799 q 264 688 264 751 z "},"±":{"ha":1049,"x_min":81,"x_max":968,"o":"m 968 63 l 81 63 l 81 264 l 418 264 l 418 440 l 81 440 l 81 642 l 418 642 l 418 833 l 629 833 l 629 642 l 968 642 l 968 440 l 629 440 l 629 264 l 968 264 l 968 63 z "},"²":{"ha":786,"x_min":92,"x_max":721,"o":"m 482 675 l 318 632 q 563 644 439 644 l 721 644 l 721 531 l 92 531 l 92 664 l 451 753 q 532 783 514 771 q 550 817 550 794 q 523 852 550 843 q 433 861 496 861 q 104 829 299 861 l 101 938 q 440 967 251 967 q 650 933 583 967 q 717 828 717 899 q 667 733 717 761 q 482 675 617 706 z "},"³":{"ha":782,"x_min":92,"x_max":704,"o":"m 381 521 q 92 547 228 521 l 94 653 q 382 628 229 628 q 528 635 494 628 q 563 665 563 643 q 547 692 563 685 q 489 699 532 699 l 188 699 l 188 794 l 486 794 q 544 802 529 794 q 560 828 560 810 q 547 847 560 840 q 496 856 533 853 q 385 860 458 860 q 107 836 240 860 l 106 940 q 404 967 233 967 q 633 935 564 967 q 701 840 701 904 q 640 749 701 778 q 704 651 704 715 q 635 551 704 582 q 381 521 565 521 z "},"´":{"ha":665,"x_min":151,"x_max":675,"o":"m 350 1026 l 675 1026 l 403 817 l 151 817 l 350 1026 z "},"¶":{"ha":1357,"x_min":51,"x_max":1243,"o":"m 51 700 q 164 903 51 842 q 515 964 276 964 q 939 947 739 964 l 939 0 l 768 0 l 768 436 q 488 425 631 425 q 161 490 271 425 q 51 700 51 554 m 1243 947 l 1243 0 l 1072 0 l 1072 947 l 1243 947 z "},"·":{"ha":394,"x_min":61,"x_max":333,"o":"m 333 644 l 333 367 l 61 367 l 61 644 l 333 644 z "},"¸":{"ha":525,"x_min":61,"x_max":464,"o":"m 306 -57 l 464 -57 l 464 -103 q 416 -253 464 -210 q 247 -297 368 -297 q 61 -272 147 -297 l 93 -136 q 231 -153 176 -153 q 288 -140 271 -153 q 306 -92 306 -128 l 306 -57 z "},"¹":{"ha":482,"x_min":64,"x_max":418,"o":"m 418 524 l 265 524 l 265 753 q 267 797 265 783 l 64 747 l 64 883 l 275 947 l 418 947 l 418 524 z "},"º":{"ha":953,"x_min":57,"x_max":896,"o":"m 478 961 q 896 692 896 961 q 478 422 896 422 q 57 692 57 422 q 478 961 57 961 m 697 690 q 649 781 697 756 q 478 807 601 807 q 305 781 354 807 q 256 690 256 754 q 304 602 256 628 q 476 576 353 576 q 649 602 600 576 q 697 690 697 628 z "},"»":{"ha":1146,"x_min":51,"x_max":1096,"o":"m 586 726 l 1096 481 l 1096 239 l 586 -7 l 586 208 l 904 360 l 586 511 l 586 726 m 51 726 l 560 481 l 560 239 l 51 -7 l 51 208 l 368 360 l 51 511 l 51 726 z "},"¼":{"ha":1611,"x_min":64,"x_max":1549,"o":"m 418 524 l 265 524 l 265 753 q 267 797 265 783 l 64 747 l 64 883 l 275 947 l 418 947 l 418 524 m 332 0 l 86 0 l 1096 947 l 1340 947 l 332 0 m 1439 0 l 1290 0 l 1290 68 l 819 68 l 819 169 l 1290 424 l 1439 424 l 1439 178 l 1549 178 l 1549 68 l 1439 68 l 1439 0 m 997 165 l 997 163 q 1207 178 1093 178 l 1290 178 l 1290 289 l 1188 238 q 997 165 1042 179 z "},"½":{"ha":1664,"x_min":64,"x_max":1600,"o":"m 418 524 l 265 524 l 265 753 q 267 797 265 783 l 64 747 l 64 883 l 275 947 l 418 947 l 418 524 m 332 0 l 86 0 l 1096 947 l 1340 947 l 332 0 m 1363 144 l 1197 101 q 1443 114 1319 114 l 1600 114 l 1600 0 l 972 0 l 972 133 l 1331 222 q 1410 252 1392 240 q 1429 286 1429 264 q 1403 322 1429 313 q 1313 331 1376 331 q 983 299 1182 331 l 982 407 q 1321 436 1132 436 q 1531 402 1464 436 q 1597 297 1597 368 q 1547 203 1597 231 q 1363 144 1497 175 z "},"¾":{"ha":1808,"x_min":92,"x_max":1744,"o":"m 381 521 q 92 547 228 521 l 94 653 q 382 628 229 628 q 528 635 494 628 q 563 665 563 643 q 547 692 563 685 q 489 699 532 699 l 188 699 l 188 794 l 486 794 q 544 802 529 794 q 560 828 560 810 q 547 847 560 840 q 496 856 533 853 q 385 860 458 860 q 107 836 240 860 l 106 940 q 404 967 233 967 q 633 935 564 967 q 701 840 701 904 q 640 749 701 778 q 704 651 704 715 q 635 551 704 582 q 381 521 565 521 m 528 0 l 283 0 l 1292 947 l 1538 947 l 528 0 m 1635 0 l 1486 0 l 1486 68 l 1017 68 l 1017 169 l 1486 424 l 1635 424 l 1635 178 l 1744 178 l 1744 68 l 1635 68 l 1635 0 m 1194 165 l 1194 163 q 1404 178 1289 178 l 1486 178 l 1486 289 l 1385 238 q 1194 165 1232 178 z "},"¿":{"ha":1142,"x_min":47,"x_max":1108,"o":"m 626 440 l 626 708 l 899 708 l 899 440 l 626 440 m 476 342 l 894 342 l 894 167 l 489 167 q 365 147 401 167 q 329 75 329 128 q 376 1 329 19 q 554 -17 424 -17 q 1071 19 806 -17 l 1108 -196 q 574 -243 832 -243 q 167 -175 286 -243 q 47 56 47 -107 q 149 272 47 201 q 476 342 250 342 z "},"À":{"ha":1578,"x_min":-17,"x_max":1593,"o":"m 679 1008 l 424 1219 l 749 1219 l 932 1008 l 679 1008 m 1251 0 l 1138 183 l 438 183 l 322 0 l -17 0 l 601 947 l 976 947 l 1593 0 l 1251 0 m 560 379 l 1014 379 l 788 743 l 560 379 z "},"Á":{"ha":1578,"x_min":-17,"x_max":1593,"o":"m 829 1219 l 1153 1219 l 897 1008 l 646 1008 l 829 1219 m 1251 0 l 1138 183 l 438 183 l 322 0 l -17 0 l 601 947 l 976 947 l 1593 0 l 1251 0 m 560 379 l 1014 379 l 788 743 l 560 379 z "},"Â":{"ha":1578,"x_min":-17,"x_max":1593,"o":"m 1132 1008 l 896 1008 l 783 1106 l 671 1008 l 435 1008 l 664 1221 l 901 1221 l 1132 1008 m 1251 0 l 1138 183 l 438 183 l 322 0 l -17 0 l 601 947 l 976 947 l 1593 0 l 1251 0 m 560 379 l 1014 379 l 788 743 l 560 379 z "},"Ã":{"ha":1578,"x_min":-17,"x_max":1593,"o":"m 506 1014 l 506 1160 q 653 1203 582 1203 q 809 1181 713 1203 q 946 1158 906 1158 q 1074 1201 1003 1158 l 1074 1049 q 950 1010 1018 1010 q 799 1033 899 1010 q 649 1056 699 1056 q 506 1014 576 1056 m 1251 0 l 1138 183 l 438 183 l 322 0 l -17 0 l 601 947 l 976 947 l 1593 0 l 1251 0 m 560 379 l 1014 379 l 788 743 l 560 379 z "},"Ä":{"ha":1578,"x_min":-17,"x_max":1593,"o":"m 717 1225 l 717 1008 l 486 1008 l 486 1225 l 717 1225 m 1079 1225 l 1079 1008 l 849 1008 l 849 1225 l 1079 1225 m 1251 0 l 1138 183 l 438 183 l 322 0 l -17 0 l 601 947 l 976 947 l 1593 0 l 1251 0 m 560 379 l 1014 379 l 788 743 l 560 379 z "},"Å":{"ha":1578,"x_min":-17,"x_max":1593,"o":"m 783 1007 q 568 1164 568 1007 q 783 1315 568 1315 q 997 1164 997 1315 q 783 1007 997 1007 m 688 1163 q 708 1118 688 1132 q 783 1104 728 1104 q 858 1118 838 1104 q 878 1163 878 1132 q 858 1205 878 1192 q 783 1218 838 1218 q 708 1205 728 1218 q 688 1163 688 1192 m 1251 0 l 1138 183 l 438 183 l 322 0 l -17 0 l 601 947 l 976 947 l 1593 0 l 1251 0 m 560 379 l 1014 379 l 788 743 l 560 379 z "},"Æ":{"ha":2493,"x_min":-17,"x_max":2432,"o":"m 354 0 l -17 0 l 1058 947 l 2432 947 l 2432 726 l 1494 726 l 1494 569 l 2404 569 l 2406 388 l 1496 388 l 1496 221 l 2432 221 l 2432 0 l 1214 0 l 1214 183 l 565 183 l 354 0 m 1214 750 l 786 379 l 1214 379 l 1214 750 z "},"Ç":{"ha":1461,"x_min":47,"x_max":1428,"o":"m 329 472 q 365 331 329 382 q 497 251 400 279 q 771 224 594 224 q 1378 294 1018 224 l 1428 60 q 761 -18 1090 -18 q 215 104 382 -18 q 47 472 47 226 q 215 840 47 718 q 761 961 382 961 q 1428 883 1090 961 l 1378 649 q 771 719 1018 719 q 497 692 594 719 q 365 613 400 664 q 329 472 329 561 m 760 -57 l 918 -57 l 918 -103 q 870 -253 918 -210 q 701 -297 822 -297 q 515 -272 601 -297 l 546 -136 q 685 -153 632 -153 q 742 -140 725 -153 q 760 -92 760 -128 l 760 -57 z "},"È":{"ha":1400,"x_min":75,"x_max":1339,"o":"m 664 1011 l 408 1221 l 733 1221 l 917 1011 l 664 1011 m 1339 0 l 75 0 l 75 947 l 1339 947 l 1339 726 l 357 726 l 357 569 l 1313 569 l 1313 388 l 357 388 l 357 221 l 1339 221 l 1339 0 z "},"É":{"ha":1400,"x_min":75,"x_max":1339,"o":"m 814 1221 l 1139 1221 l 882 1011 l 631 1011 l 814 1221 m 1339 0 l 75 0 l 75 947 l 1339 947 l 1339 726 l 357 726 l 357 569 l 1313 569 l 1313 388 l 357 388 l 357 221 l 1339 221 l 1339 0 z "},"Ê":{"ha":1400,"x_min":75,"x_max":1339,"o":"m 1117 1011 l 881 1011 l 768 1107 l 656 1011 l 419 1011 l 649 1224 l 886 1224 l 1117 1011 m 1339 0 l 75 0 l 75 947 l 1339 947 l 1339 726 l 357 726 l 357 569 l 1313 569 l 1313 388 l 357 388 l 357 221 l 1339 221 l 1339 0 z "},"Ë":{"ha":1400,"x_min":75,"x_max":1339,"o":"m 701 1226 l 701 1011 l 471 1011 l 471 1226 l 701 1226 m 1064 1226 l 1064 1011 l 835 1011 l 835 1226 l 1064 1226 m 1339 0 l 75 0 l 75 947 l 1339 947 l 1339 726 l 357 726 l 357 569 l 1313 569 l 1313 388 l 357 388 l 357 221 l 1339 221 l 1339 0 z "},"Ì":{"ha":432,"x_min":-144,"x_max":364,"o":"m 113 1008 l -144 1219 l 181 1219 l 364 1008 l 113 1008 m 357 0 l 75 0 l 75 947 l 357 947 l 357 0 z "},"Í":{"ha":432,"x_min":75,"x_max":586,"o":"m 261 1219 l 586 1219 l 331 1008 l 78 1008 l 261 1219 m 357 0 l 75 0 l 75 947 l 357 947 l 357 0 z "},"Î":{"ha":432,"x_min":-133,"x_max":564,"o":"m 564 1008 l 328 1008 l 215 1106 l 103 1008 l -133 1008 l 97 1221 l 335 1221 l 564 1008 m 357 0 l 75 0 l 75 947 l 357 947 l 357 0 z "},"Ï":{"ha":432,"x_min":-81,"x_max":511,"o":"m 149 1225 l 149 1008 l -81 1008 l -81 1225 l 149 1225 m 511 1225 l 511 1008 l 282 1008 l 282 1225 l 511 1225 m 357 0 l 75 0 l 75 947 l 357 947 l 357 0 z "},"Ð":{"ha":1635,"x_min":14,"x_max":1588,"o":"m 122 392 l 14 392 l 14 554 l 122 554 l 122 947 l 1046 947 q 1447 839 1307 947 q 1588 475 1588 731 q 1549 244 1588 339 q 1437 98 1511 150 q 1268 23 1363 46 q 1046 0 1174 0 l 122 0 l 122 392 m 404 401 l 404 242 l 1018 242 q 1233 290 1171 242 q 1296 475 1296 339 q 1233 658 1296 610 q 1018 706 1171 706 l 404 706 l 404 544 l 760 544 l 760 401 l 404 401 z "},"Ñ":{"ha":1568,"x_min":75,"x_max":1493,"o":"m 549 1015 l 549 1161 q 694 1204 618 1204 q 851 1183 754 1204 q 989 1161 949 1161 q 1117 1203 1049 1161 l 1117 1051 q 993 1011 1060 1011 q 842 1034 942 1011 q 692 1057 742 1057 q 549 1015 619 1057 m 357 0 l 75 0 l 75 947 l 397 947 l 1211 307 l 1211 947 l 1493 947 l 1493 0 l 1178 0 l 357 651 l 357 0 z "},"Ò":{"ha":1650,"x_min":47,"x_max":1603,"o":"m 722 1011 l 465 1221 l 790 1221 l 974 1011 l 722 1011 m 1417 99 q 1324 40 1417 99 q 825 -19 1231 -19 q 233 99 419 -19 q 47 474 47 218 q 233 848 47 729 q 825 967 419 967 q 1417 848 1231 967 q 1603 474 1603 729 q 1417 99 1603 218 m 825 222 q 1210 278 1106 222 q 1315 474 1315 333 q 1210 669 1315 614 q 825 725 1106 725 q 436 669 543 725 q 329 474 329 613 q 436 278 329 335 q 825 222 543 222 z "},"Ó":{"ha":1650,"x_min":47,"x_max":1603,"o":"m 871 1221 l 1196 1221 l 939 1011 l 688 1011 l 871 1221 m 1417 99 q 1324 40 1417 99 q 825 -19 1231 -19 q 233 99 419 -19 q 47 474 47 218 q 233 848 47 729 q 825 967 419 967 q 1417 848 1231 967 q 1603 474 1603 729 q 1417 99 1603 218 m 825 222 q 1210 278 1106 222 q 1315 474 1315 333 q 1210 669 1315 614 q 825 725 1106 725 q 436 669 543 725 q 329 474 329 613 q 436 278 329 335 q 825 222 543 222 z "},"Ô":{"ha":1650,"x_min":47,"x_max":1603,"o":"m 1174 1011 l 938 1011 l 825 1107 l 713 1011 l 476 1011 l 706 1224 l 944 1224 l 1174 1011 m 1417 99 q 1324 40 1417 99 q 825 -19 1231 -19 q 233 99 419 -19 q 47 474 47 218 q 233 848 47 729 q 825 967 419 967 q 1417 848 1231 967 q 1603 474 1603 729 q 1417 99 1603 218 m 825 222 q 1210 278 1106 222 q 1315 474 1315 333 q 1210 669 1315 614 q 825 725 1106 725 q 436 669 543 725 q 329 474 329 613 q 436 278 329 335 q 825 222 543 222 z "},"Õ":{"ha":1650,"x_min":47,"x_max":1603,"o":"m 547 1015 l 547 1161 q 694 1204 619 1204 q 851 1183 754 1204 q 988 1161 947 1161 q 1115 1203 1047 1161 l 1115 1051 q 992 1011 1061 1011 q 840 1034 940 1011 q 690 1057 740 1057 q 547 1015 618 1057 m 1417 99 q 1324 40 1417 99 q 825 -19 1231 -19 q 233 99 419 -19 q 47 474 47 218 q 233 848 47 729 q 825 967 419 967 q 1417 848 1231 967 q 1603 474 1603 729 q 1417 99 1603 218 m 825 222 q 1210 278 1106 222 q 1315 474 1315 333 q 1210 669 1315 614 q 825 725 1106 725 q 436 669 543 725 q 329 474 329 613 q 436 278 329 335 q 825 222 543 222 z "},"Ö":{"ha":1650,"x_min":47,"x_max":1603,"o":"m 758 1226 l 758 1011 l 528 1011 l 528 1226 l 758 1226 m 1121 1226 l 1121 1011 l 892 1011 l 892 1226 l 1121 1226 m 1417 99 q 1324 40 1417 99 q 825 -19 1231 -19 q 233 99 419 -19 q 47 474 47 218 q 233 848 47 729 q 825 967 419 967 q 1417 848 1231 967 q 1603 474 1603 729 q 1417 99 1603 218 m 825 222 q 1210 278 1106 222 q 1315 474 1315 333 q 1210 669 1315 614 q 825 725 1106 725 q 436 669 543 725 q 329 474 329 613 q 436 278 329 335 q 825 222 543 222 z "},"×":{"ha":1028,"x_min":51,"x_max":976,"o":"m 976 303 l 878 131 l 513 346 l 149 131 l 51 303 l 325 454 l 51 607 l 149 779 l 514 563 l 878 779 l 976 607 l 701 454 l 976 303 z "},"Ø":{"ha":1650,"x_min":47,"x_max":1603,"o":"m 347 -42 l 110 -42 l 260 83 q 47 474 47 201 q 233 848 47 729 q 825 967 419 967 q 1258 917 1088 967 l 1332 978 l 1569 978 l 1415 849 q 1603 474 1603 731 q 1417 99 1603 218 q 825 -19 1231 -19 q 424 22 586 -19 l 347 -42 m 329 474 q 363 341 329 392 q 474 263 396 290 l 1019 717 q 825 725 936 725 q 436 669 543 725 q 329 474 329 613 m 825 222 q 1210 278 1106 222 q 1315 474 1315 333 q 1204 672 1315 618 l 669 228 q 825 222 731 222 z "},"Ù":{"ha":1492,"x_min":61,"x_max":1431,"o":"m 643 1008 l 386 1219 l 711 1219 l 894 1008 l 643 1008 m 1149 501 l 1149 947 l 1431 947 l 1431 442 q 1251 96 1431 207 q 746 -15 1072 -15 q 240 96 419 -15 q 61 442 61 207 l 61 947 l 343 947 l 343 501 q 438 288 343 351 q 746 225 532 225 q 1054 288 960 225 q 1149 501 1149 351 z "},"Ú":{"ha":1492,"x_min":61,"x_max":1431,"o":"m 792 1219 l 1117 1219 l 860 1008 l 608 1008 l 792 1219 m 1149 501 l 1149 947 l 1431 947 l 1431 442 q 1251 96 1431 207 q 746 -15 1072 -15 q 240 96 419 -15 q 61 442 61 207 l 61 947 l 343 947 l 343 501 q 438 288 343 351 q 746 225 532 225 q 1054 288 960 225 q 1149 501 1149 351 z "},"Û":{"ha":1492,"x_min":61,"x_max":1431,"o":"m 1094 1008 l 858 1008 l 746 1106 l 633 1008 l 397 1008 l 626 1221 l 865 1221 l 1094 1008 m 1149 501 l 1149 947 l 1431 947 l 1431 442 q 1251 96 1431 207 q 746 -15 1072 -15 q 240 96 419 -15 q 61 442 61 207 l 61 947 l 343 947 l 343 501 q 438 288 343 351 q 746 225 532 225 q 1054 288 960 225 q 1149 501 1149 351 z "},"Ü":{"ha":1492,"x_min":61,"x_max":1431,"o":"m 679 1225 l 679 1008 l 449 1008 l 449 1225 l 679 1225 m 1042 1225 l 1042 1008 l 813 1008 l 813 1225 l 1042 1225 m 1149 501 l 1149 947 l 1431 947 l 1431 442 q 1251 96 1431 207 q 746 -15 1072 -15 q 240 96 419 -15 q 61 442 61 207 l 61 947 l 343 947 l 343 501 q 438 288 343 351 q 746 225 532 225 q 1054 288 960 225 q 1149 501 1149 351 z "},"Ý":{"ha":1571,"x_min":1,"x_max":1568,"o":"m 833 1221 l 1158 1221 l 901 1011 l 650 1011 l 833 1221 m 643 351 l 1 947 l 363 947 l 788 564 l 1213 947 l 1568 947 l 925 350 l 925 0 l 643 0 l 643 351 z "},"Þ":{"ha":1456,"x_min":75,"x_max":1424,"o":"m 357 0 l 75 0 l 75 947 l 357 947 l 357 811 l 1028 811 q 1424 474 1424 811 q 1028 136 1424 136 l 357 136 l 357 0 m 357 585 l 357 363 l 996 363 q 1099 388 1065 363 q 1132 474 1132 414 q 1099 560 1132 535 q 996 585 1067 585 l 357 585 z "},"ß":{"ha":1339,"x_min":75,"x_max":1296,"o":"m 853 -14 q 411 33 625 -15 l 453 247 q 836 207 660 207 q 992 231 949 207 q 1035 324 1035 256 q 1001 408 1035 383 q 888 432 967 432 l 457 432 l 457 625 l 872 625 q 970 647 940 625 q 1000 721 1000 668 q 944 813 1000 790 q 701 835 888 835 q 416 796 494 835 q 338 646 338 757 l 338 0 l 75 0 l 75 617 q 237 955 75 854 q 717 1056 399 1056 q 1128 983 994 1056 q 1261 761 1261 911 q 1046 539 1261 581 q 1233 453 1169 515 q 1296 274 1296 392 q 853 -14 1296 -14 z "},"à":{"ha":1254,"x_min":47,"x_max":1189,"o":"m 531 826 l 263 1038 l 586 1038 l 783 826 l 531 826 m 1189 676 l 1188 675 l 1189 675 l 1189 0 l 958 0 l 939 94 q 467 -14 688 -14 q 47 347 47 -14 q 85 526 47 451 q 197 642 124 600 q 365 703 269 685 q 583 722 460 722 q 1189 676 843 722 m 310 357 q 357 238 310 272 q 518 203 404 203 q 926 272 686 203 l 926 493 q 557 511 736 511 q 370 475 431 511 q 310 357 310 439 z "},"á":{"ha":1254,"x_min":47,"x_max":1189,"o":"m 722 1038 l 1046 1038 l 775 826 l 524 826 l 722 1038 m 1189 676 l 1188 675 l 1189 675 l 1189 0 l 958 0 l 939 94 q 467 -14 688 -14 q 47 347 47 -14 q 85 526 47 451 q 197 642 124 600 q 365 703 269 685 q 583 722 460 722 q 1189 676 843 722 m 310 357 q 357 238 310 272 q 518 203 404 203 q 926 272 686 203 l 926 493 q 557 511 736 511 q 370 475 431 511 q 310 357 310 439 z "},"â":{"ha":1254,"x_min":47,"x_max":1189,"o":"m 1007 825 l 771 825 l 658 921 l 546 825 l 310 825 l 539 1038 l 778 1038 l 1007 825 m 1189 676 l 1188 675 l 1189 675 l 1189 0 l 958 0 l 939 94 q 467 -14 688 -14 q 47 347 47 -14 q 85 526 47 451 q 197 642 124 600 q 365 703 269 685 q 583 722 460 722 q 1189 676 843 722 m 310 357 q 357 238 310 272 q 518 203 404 203 q 926 272 686 203 l 926 493 q 557 511 736 511 q 370 475 431 511 q 310 357 310 439 z "},"ã":{"ha":1254,"x_min":47,"x_max":1189,"o":"m 382 831 l 382 978 q 529 1019 457 1019 q 685 998 589 1019 q 822 976 782 976 q 950 1018 882 976 l 950 867 q 826 828 897 828 q 675 850 775 828 q 525 872 575 872 q 382 831 449 872 m 1189 676 l 1188 675 l 1189 675 l 1189 0 l 958 0 l 939 94 q 467 -14 688 -14 q 47 347 47 -14 q 85 526 47 451 q 197 642 124 600 q 365 703 269 685 q 583 722 460 722 q 1189 676 843 722 m 310 357 q 357 238 310 272 q 518 203 404 203 q 926 272 686 203 l 926 493 q 557 511 736 511 q 370 475 431 511 q 310 357 310 439 z "},"ä":{"ha":1254,"x_min":47,"x_max":1189,"o":"m 592 1032 l 592 817 l 361 817 l 361 1032 l 592 1032 m 954 1032 l 954 817 l 724 817 l 724 1032 l 954 1032 m 1189 676 l 1188 675 l 1189 675 l 1189 0 l 958 0 l 939 94 q 467 -14 688 -14 q 47 347 47 -14 q 85 526 47 451 q 197 642 124 600 q 365 703 269 685 q 583 722 460 722 q 1189 676 843 722 m 310 357 q 357 238 310 272 q 518 203 404 203 q 926 272 686 203 l 926 493 q 557 511 736 511 q 370 475 431 511 q 310 357 310 439 z "},"å":{"ha":1254,"x_min":47,"x_max":1189,"o":"m 872 972 q 657 817 872 817 q 442 972 442 817 q 657 1124 442 1124 q 872 972 872 1124 m 563 972 q 583 927 563 942 q 657 913 603 913 q 732 926 713 913 q 751 972 751 940 q 732 1013 751 1000 q 657 1026 713 1026 q 583 1013 603 1026 q 563 972 563 1000 m 1189 676 l 1188 675 l 1189 675 l 1189 0 l 958 0 l 939 94 q 467 -14 688 -14 q 47 347 47 -14 q 85 526 47 451 q 197 642 124 600 q 365 703 269 685 q 583 722 460 722 q 1189 676 843 722 m 310 357 q 357 238 310 272 q 518 203 404 203 q 926 272 686 203 l 926 493 q 557 511 736 511 q 370 475 431 511 q 310 357 310 439 z "},"æ":{"ha":2078,"x_min":56,"x_max":2031,"o":"m 1513 188 q 1961 224 1740 188 l 2014 35 q 1489 -19 1797 -19 q 982 126 1106 -19 q 414 -19 733 -19 q 56 196 56 -19 q 166 365 56 314 q 518 415 276 415 l 904 415 q 815 489 888 467 q 567 511 742 511 q 143 467 343 511 l 106 678 q 599 726 333 726 q 1044 632 924 726 q 1472 726 1181 726 q 2031 408 2031 726 q 2024 294 2031 339 l 1171 294 q 1261 209 1188 231 q 1513 188 1335 188 m 1463 551 q 1250 525 1315 551 q 1169 431 1185 499 l 1771 431 q 1692 524 1758 496 q 1463 551 1626 551 m 307 222 q 338 176 307 188 q 453 164 368 164 q 703 189 599 164 q 919 261 807 214 q 917 281 917 275 l 464 278 q 341 267 375 278 q 307 222 307 256 z "},"ç":{"ha":1179,"x_min":47,"x_max":1132,"o":"m 47 356 q 190 638 47 550 q 649 726 332 726 q 1132 672 903 726 l 1079 463 q 610 506 867 506 q 376 474 442 506 q 310 356 310 442 q 375 237 310 268 q 610 206 440 206 q 1079 249 867 206 l 1132 39 q 649 -15 903 -15 q 190 74 333 -15 q 47 356 47 163 m 629 -57 l 788 -57 l 788 -103 q 740 -253 788 -210 q 571 -297 692 -297 q 385 -272 471 -297 l 415 -136 q 553 -153 501 -153 q 611 -140 593 -153 q 629 -92 629 -128 l 629 -57 z "},"è":{"ha":1214,"x_min":47,"x_max":1167,"o":"m 479 826 l 211 1038 l 535 1038 l 732 826 l 479 826 m 649 188 q 1097 224 876 188 l 1150 35 q 625 -19 936 -19 q 185 69 322 -19 q 47 354 47 157 q 188 637 47 547 q 608 726 329 726 q 1167 408 1167 726 q 1160 294 1167 339 l 307 294 q 397 209 324 231 q 649 188 471 188 m 599 551 q 386 525 451 551 q 306 431 321 499 l 907 431 q 828 524 894 496 q 599 551 763 551 z "},"é":{"ha":1214,"x_min":47,"x_max":1167,"o":"m 671 1038 l 994 1038 l 724 826 l 472 826 l 671 1038 m 649 188 q 1097 224 876 188 l 1150 35 q 625 -19 936 -19 q 185 69 322 -19 q 47 354 47 157 q 188 637 47 547 q 608 726 329 726 q 1167 408 1167 726 q 1160 294 1167 339 l 307 294 q 397 209 324 231 q 649 188 471 188 m 599 551 q 386 525 451 551 q 306 431 321 499 l 907 431 q 828 524 894 496 q 599 551 763 551 z "},"ê":{"ha":1214,"x_min":47,"x_max":1167,"o":"m 956 825 l 719 825 l 607 921 l 494 825 l 258 825 l 488 1038 l 726 1038 l 956 825 m 649 188 q 1097 224 876 188 l 1150 35 q 625 -19 936 -19 q 185 69 322 -19 q 47 354 47 157 q 188 637 47 547 q 608 726 329 726 q 1167 408 1167 726 q 1160 294 1167 339 l 307 294 q 397 209 324 231 q 649 188 471 188 m 599 551 q 386 525 451 551 q 306 431 321 499 l 907 431 q 828 524 894 496 q 599 551 763 551 z "},"ë":{"ha":1214,"x_min":47,"x_max":1167,"o":"m 540 1032 l 540 817 l 310 817 l 310 1032 l 540 1032 m 903 1032 l 903 817 l 672 817 l 672 1032 l 903 1032 m 649 188 q 1097 224 876 188 l 1150 35 q 625 -19 936 -19 q 185 69 322 -19 q 47 354 47 157 q 188 637 47 547 q 608 726 329 726 q 1167 408 1167 726 q 1160 294 1167 339 l 307 294 q 397 209 324 231 q 649 188 471 188 m 599 551 q 386 525 451 551 q 306 431 321 499 l 907 431 q 828 524 894 496 q 599 551 763 551 z "},"ì":{"ha":401,"x_min":-190,"x_max":338,"o":"m 79 826 l -190 1038 l 135 1038 l 331 826 l 79 826 m 75 0 l 75 708 l 338 708 l 338 0 l 75 0 z "},"í":{"ha":401,"x_min":71,"x_max":594,"o":"m 269 1038 l 594 1038 l 324 826 l 71 826 l 269 1038 m 75 0 l 75 708 l 338 708 l 338 0 l 75 0 z "},"î":{"ha":401,"x_min":-143,"x_max":554,"o":"m 554 825 l 319 825 l 207 921 l 93 825 l -143 825 l 88 1038 l 325 1038 l 554 825 m 75 0 l 75 708 l 338 708 l 338 0 l 75 0 z "},"ï":{"ha":401,"x_min":-92,"x_max":501,"o":"m 139 1032 l 139 817 l -92 817 l -92 1032 l 139 1032 m 501 1032 l 501 817 l 272 817 l 272 1032 l 501 1032 m 75 0 l 75 708 l 338 708 l 338 0 l 75 0 z "},"ð":{"ha":1326,"x_min":47,"x_max":1274,"o":"m 610 751 l 369 751 l 660 876 q 268 1015 503 953 l 722 1015 q 868 967 803 996 l 1000 1024 l 1239 1024 l 978 911 q 1192 715 1110 832 q 1274 447 1274 599 q 1103 103 1274 221 q 626 -14 932 -14 q 193 71 339 -14 q 47 353 47 156 q 175 619 47 539 q 535 700 303 700 q 974 619 767 700 q 765 819 914 726 l 610 751 m 628 192 q 907 247 814 192 q 1013 422 1000 301 q 550 501 769 501 q 310 353 310 501 q 382 230 310 268 q 628 192 454 192 z "},"ñ":{"ha":1261,"x_min":75,"x_max":1204,"o":"m 394 831 l 394 978 q 540 1019 465 1019 q 697 998 600 1019 q 835 976 794 976 q 963 1018 894 976 l 963 867 q 839 828 907 828 q 688 850 788 828 q 538 872 588 872 q 394 831 461 872 m 75 0 l 75 708 l 306 708 l 321 624 q 808 726 582 726 q 1104 647 1004 726 q 1204 393 1204 567 l 1204 0 l 942 0 l 942 349 q 724 508 942 508 q 338 446 565 508 l 338 0 l 75 0 z "},"ò":{"ha":1336,"x_min":47,"x_max":1289,"o":"m 543 826 l 274 1038 l 599 1038 l 794 826 l 543 826 m 199 72 q 123 117 199 72 q 47 356 47 163 q 199 639 47 549 q 668 729 351 729 q 1136 639 983 729 q 1289 356 1289 549 q 1136 72 1289 163 q 668 -18 983 -18 q 199 72 351 -18 m 385 474 q 348 457 385 474 q 310 356 310 440 q 385 237 310 271 q 668 203 461 203 q 951 237 875 203 q 1026 356 1026 271 q 951 474 1026 440 q 668 508 875 508 q 385 474 461 508 z "},"ó":{"ha":1336,"x_min":47,"x_max":1289,"o":"m 733 1038 l 1058 1038 l 786 826 l 535 826 l 733 1038 m 199 72 q 123 117 199 72 q 47 356 47 163 q 199 639 47 549 q 668 729 351 729 q 1136 639 983 729 q 1289 356 1289 549 q 1136 72 1289 163 q 668 -18 983 -18 q 199 72 351 -18 m 385 474 q 348 457 385 474 q 310 356 310 440 q 385 237 310 271 q 668 203 461 203 q 951 237 875 203 q 1026 356 1026 271 q 951 474 1026 440 q 668 508 875 508 q 385 474 461 508 z "},"ô":{"ha":1336,"x_min":47,"x_max":1289,"o":"m 1018 825 l 782 825 l 669 921 l 557 825 l 321 825 l 551 1038 l 789 1038 l 1018 825 m 199 72 q 123 117 199 72 q 47 356 47 163 q 199 639 47 549 q 668 729 351 729 q 1136 639 983 729 q 1289 356 1289 549 q 1136 72 1289 163 q 668 -18 983 -18 q 199 72 351 -18 m 385 474 q 348 457 385 474 q 310 356 310 440 q 385 237 310 271 q 668 203 461 203 q 951 237 875 203 q 1026 356 1026 271 q 951 474 1026 440 q 668 508 875 508 q 385 474 461 508 z "},"õ":{"ha":1336,"x_min":47,"x_max":1289,"o":"m 392 828 l 392 974 q 539 1017 465 1017 q 695 994 599 1017 q 832 972 792 972 q 960 1014 886 972 l 960 863 q 836 824 904 824 q 685 847 785 824 q 535 869 585 869 q 392 828 463 869 m 199 72 q 123 117 199 72 q 47 356 47 163 q 199 639 47 549 q 668 729 351 729 q 1136 639 983 729 q 1289 356 1289 549 q 1136 72 1289 163 q 668 -18 983 -18 q 199 72 351 -18 m 385 474 q 348 457 385 474 q 310 356 310 440 q 385 237 310 271 q 668 203 461 203 q 951 237 875 203 q 1026 356 1026 271 q 951 474 1026 440 q 668 508 875 508 q 385 474 461 508 z "},"ö":{"ha":1336,"x_min":47,"x_max":1289,"o":"m 603 1032 l 603 817 l 372 817 l 372 1032 l 603 1032 m 965 1032 l 965 817 l 736 817 l 736 1032 l 965 1032 m 199 72 q 123 117 199 72 q 47 356 47 163 q 199 639 47 549 q 668 729 351 729 q 1136 639 983 729 q 1289 356 1289 549 q 1136 72 1289 163 q 668 -18 983 -18 q 199 72 351 -18 m 385 474 q 348 457 385 474 q 310 356 310 440 q 385 237 310 271 q 668 203 461 203 q 951 237 875 203 q 1026 356 1026 271 q 951 474 1026 440 q 668 508 875 508 q 385 474 461 508 z "},"÷":{"ha":989,"x_min":51,"x_max":938,"o":"m 626 938 l 626 660 l 354 660 l 354 938 l 626 938 m 938 358 l 51 358 l 51 560 l 938 560 l 938 358 m 626 257 l 626 -21 l 354 -21 l 354 257 l 626 257 z "},"ø":{"ha":1343,"x_min":47,"x_max":1289,"o":"m 47 356 q 199 639 47 549 q 668 729 351 729 q 964 703 844 729 l 1032 761 l 1264 761 l 1128 643 q 1289 356 1289 553 q 1136 72 1289 163 q 668 -18 983 -18 q 388 6 500 -18 l 321 -53 l 88 -53 l 219 61 q 47 356 47 153 m 310 356 q 413 226 310 257 l 738 507 q 668 508 715 508 q 385 474 461 508 q 310 356 310 440 m 1026 356 q 938 479 1026 447 l 618 203 l 668 203 q 951 237 875 203 q 1026 356 1026 271 z "},"ù":{"ha":1256,"x_min":58,"x_max":1190,"o":"m 539 826 l 269 1038 l 594 1038 l 790 826 l 539 826 m 58 314 l 58 708 l 319 708 l 319 358 q 543 199 319 199 q 929 264 696 199 l 929 708 l 1190 708 l 1190 0 l 961 0 l 946 85 q 457 -19 679 -19 q 159 60 260 -19 q 58 314 58 140 z "},"ú":{"ha":1256,"x_min":58,"x_max":1190,"o":"m 729 1038 l 1054 1038 l 783 826 l 531 826 l 729 1038 m 58 314 l 58 708 l 319 708 l 319 358 q 543 199 319 199 q 929 264 696 199 l 929 708 l 1190 708 l 1190 0 l 961 0 l 946 85 q 457 -19 679 -19 q 159 60 260 -19 q 58 314 58 140 z "},"û":{"ha":1256,"x_min":58,"x_max":1190,"o":"m 1015 825 l 779 825 l 667 921 l 553 825 l 318 825 l 547 1038 l 785 1038 l 1015 825 m 58 314 l 58 708 l 319 708 l 319 358 q 543 199 319 199 q 929 264 696 199 l 929 708 l 1190 708 l 1190 0 l 961 0 l 946 85 q 457 -19 679 -19 q 159 60 260 -19 q 58 314 58 140 z "},"ü":{"ha":1256,"x_min":58,"x_max":1190,"o":"m 599 1032 l 599 817 l 369 817 l 369 1032 l 599 1032 m 961 1032 l 961 817 l 732 817 l 732 1032 l 961 1032 m 58 314 l 58 708 l 319 708 l 319 358 q 543 199 319 199 q 929 264 696 199 l 929 708 l 1190 708 l 1190 0 l 961 0 l 946 85 q 457 -19 679 -19 q 159 60 260 -19 q 58 314 58 140 z "},"ý":{"ha":1279,"x_min":58,"x_max":1210,"o":"m 717 1038 l 1042 1038 l 771 826 l 519 826 l 717 1038 m 58 414 l 58 708 l 319 708 l 319 454 q 374 330 319 365 q 572 294 428 294 q 947 332 747 294 l 947 708 l 1210 708 l 1210 157 q 1074 -175 1210 -79 q 631 -271 938 -271 q 111 -206 347 -271 l 157 -6 q 649 -68 411 -68 q 899 -20 829 -68 q 960 144 968 28 l 957 151 q 510 79 710 79 q 162 158 265 79 q 58 414 58 236 z "},"þ":{"ha":1264,"x_min":75,"x_max":1217,"o":"m 338 -257 l 75 -257 l 75 1042 l 338 1042 l 338 618 q 797 722 583 722 q 1217 360 1217 722 q 710 -14 1217 -14 q 338 21 551 -14 l 338 -257 m 749 506 q 338 436 586 506 l 338 221 q 722 197 565 197 q 898 234 842 197 q 954 356 954 271 q 908 471 954 436 q 749 506 861 506 z "},"ÿ":{"ha":1279,"x_min":58,"x_max":1210,"o":"m 588 1032 l 588 817 l 357 817 l 357 1032 l 588 1032 m 950 1032 l 950 817 l 719 817 l 719 1032 l 950 1032 m 58 414 l 58 708 l 319 708 l 319 454 q 374 330 319 365 q 572 294 428 294 q 947 332 747 294 l 947 708 l 1210 708 l 1210 157 q 1074 -175 1210 -79 q 631 -271 938 -271 q 111 -206 347 -271 l 157 -6 q 649 -68 411 -68 q 899 -20 829 -68 q 960 144 968 28 l 957 151 q 510 79 710 79 q 162 158 265 79 q 58 414 58 236 z "},"Ā":{"ha":1578,"x_min":-17,"x_max":1593,"o":"m 1069 1036 l 500 1036 l 500 1197 l 1069 1197 l 1069 1036 m 1251 0 l 1138 183 l 438 183 l 322 0 l -17 0 l 601 947 l 976 947 l 1593 0 l 1251 0 m 560 379 l 1014 379 l 788 743 l 560 379 z "},"ā":{"ha":1254,"x_min":47,"x_max":1189,"o":"m 1189 676 l 1188 675 l 1189 675 l 1189 0 l 958 0 l 939 94 q 467 -14 688 -14 q 47 347 47 -14 q 152 610 47 522 q 453 717 257 697 l 453 740 l 1024 740 l 1024 697 q 1189 676 1118 686 m 310 357 q 357 238 310 272 q 518 203 404 203 q 926 272 686 203 l 926 493 q 557 511 736 511 q 370 475 431 511 q 310 357 310 439 z "},"Ă":{"ha":1578,"x_min":-17,"x_max":1593,"o":"m 892 1231 l 1085 1231 q 782 1008 1085 1008 q 478 1231 478 1008 l 671 1231 q 695 1161 671 1182 q 782 1140 719 1140 q 868 1161 844 1140 q 892 1231 892 1182 m 1251 0 l 1138 183 l 438 183 l 322 0 l -17 0 l 601 947 l 976 947 l 1593 0 l 1251 0 m 560 379 l 1014 379 l 788 743 l 560 379 z "},"ă":{"ha":1254,"x_min":47,"x_max":1189,"o":"m 768 1035 l 961 1035 q 657 813 961 813 q 353 1035 353 813 l 546 1035 q 571 965 546 986 q 657 944 596 944 q 744 965 719 944 q 768 1035 768 986 m 1189 676 l 1188 675 l 1189 675 l 1189 0 l 958 0 l 939 94 q 467 -14 688 -14 q 47 347 47 -14 q 85 526 47 451 q 197 642 124 600 q 365 703 269 685 q 583 722 460 722 q 1189 676 843 722 m 310 357 q 357 238 310 272 q 518 203 404 203 q 926 272 686 203 l 926 493 q 557 511 736 511 q 370 475 431 511 q 310 357 310 439 z "},"Ą":{"ha":1578,"x_min":-17,"x_max":1593,"o":"m 1236 0 l 1251 0 l 1138 183 l 438 183 l 322 0 l -17 0 l 601 947 l 976 947 l 1593 0 l 1375 0 q 1214 -131 1214 -76 q 1254 -160 1214 -160 q 1400 -124 1315 -160 l 1439 -244 q 1222 -299 1328 -299 q 1061 -183 1061 -299 q 1114 -77 1061 -131 q 1236 0 1167 -24 m 560 379 l 1014 379 l 788 743 l 560 379 z "},"ą":{"ha":1254,"x_min":47,"x_max":1249,"o":"m 1189 676 l 1188 675 l 1189 675 l 1189 0 l 1185 0 q 1073 -66 1121 -31 q 1025 -131 1025 -101 q 1064 -160 1025 -160 q 1210 -124 1125 -160 l 1249 -244 q 1032 -299 1138 -299 q 871 -183 871 -299 q 925 -77 871 -131 q 1044 0 979 -24 l 958 0 l 939 94 q 467 -14 688 -14 q 47 347 47 -14 q 85 526 47 451 q 197 642 124 600 q 365 703 269 685 q 583 722 460 722 q 1189 676 843 722 m 310 357 q 357 238 310 272 q 518 203 404 203 q 926 272 686 203 l 926 493 q 557 511 736 511 q 370 475 431 511 q 310 357 310 439 z "},"Ć":{"ha":1461,"x_min":47,"x_max":1428,"o":"m 849 1221 l 1174 1221 l 918 1011 l 665 1011 l 849 1221 m 329 472 q 365 331 329 382 q 497 251 400 279 q 771 224 594 224 q 1378 294 1018 224 l 1428 60 q 761 -18 1090 -18 q 215 104 382 -18 q 47 472 47 226 q 215 840 47 718 q 761 961 382 961 q 1428 883 1090 961 l 1378 649 q 771 719 1018 719 q 497 692 594 719 q 365 613 400 664 q 329 472 329 561 z "},"ć":{"ha":1179,"x_min":47,"x_max":1132,"o":"m 700 1038 l 1024 1038 l 753 826 l 501 826 l 700 1038 m 47 356 q 190 638 47 550 q 649 726 332 726 q 1132 672 903 726 l 1079 463 q 610 506 867 506 q 376 474 442 506 q 310 356 310 442 q 375 237 310 268 q 610 206 440 206 q 1079 249 867 206 l 1132 39 q 649 -15 903 -15 q 190 74 333 -15 q 47 356 47 163 z "},"Ĉ":{"ha":1461,"x_min":47,"x_max":1428,"o":"m 1151 1011 l 915 1011 l 803 1107 l 690 1011 l 454 1011 l 685 1224 l 922 1224 l 1151 1011 m 329 472 q 365 331 329 382 q 497 251 400 279 q 771 224 594 224 q 1378 294 1018 224 l 1428 60 q 761 -18 1090 -18 q 215 104 382 -18 q 47 472 47 226 q 215 840 47 718 q 761 961 382 961 q 1428 883 1090 961 l 1378 649 q 771 719 1018 719 q 497 692 594 719 q 365 613 400 664 q 329 472 329 561 z "},"ĉ":{"ha":1179,"x_min":47,"x_max":1132,"o":"m 968 825 l 732 825 l 619 921 l 507 825 l 271 825 l 501 1038 l 739 1038 l 968 825 m 47 356 q 190 638 47 550 q 649 726 332 726 q 1132 672 903 726 l 1079 463 q 608 506 867 506 q 374 474 440 506 q 308 356 308 442 q 374 237 308 268 q 608 206 440 206 q 1079 249 867 206 l 1132 39 q 649 -15 903 -15 q 190 74 332 -15 q 47 356 47 163 z "},"Ċ":{"ha":1461,"x_min":47,"x_max":1428,"o":"m 935 1238 l 935 1021 l 672 1021 l 672 1238 l 935 1238 m 329 472 q 365 331 329 382 q 497 251 400 279 q 771 224 594 224 q 1378 294 1018 224 l 1428 60 q 761 -18 1090 -18 q 215 104 382 -18 q 47 472 47 226 q 215 840 47 718 q 761 961 382 961 q 1428 883 1090 961 l 1378 649 q 771 719 1018 719 q 497 692 594 719 q 365 613 400 664 q 329 472 329 561 z "},"ċ":{"ha":1179,"x_min":47,"x_max":1132,"o":"m 767 1024 l 767 807 l 506 807 l 506 1024 l 767 1024 m 47 356 q 190 638 47 550 q 649 726 332 726 q 1132 672 903 726 l 1079 463 q 610 506 867 506 q 376 474 442 506 q 310 356 310 442 q 375 237 310 268 q 610 206 440 206 q 1079 249 867 206 l 1132 39 q 649 -15 903 -15 q 190 74 333 -15 q 47 356 47 163 z "},"Č":{"ha":1461,"x_min":47,"x_max":1428,"o":"m 1153 1224 l 924 1011 l 686 1011 l 456 1224 l 692 1224 l 804 1126 l 917 1224 l 1153 1224 m 329 472 q 365 331 329 382 q 497 251 400 279 q 771 224 594 224 q 1378 294 1018 224 l 1428 60 q 761 -18 1090 -18 q 215 104 382 -18 q 47 472 47 226 q 215 840 47 718 q 761 961 382 961 q 1428 883 1090 961 l 1378 649 q 771 719 1018 719 q 497 692 594 719 q 365 613 400 664 q 329 472 329 561 z "},"č":{"ha":1179,"x_min":47,"x_max":1132,"o":"m 986 1038 l 756 825 l 518 825 l 289 1038 l 525 1038 l 638 940 l 750 1038 l 986 1038 m 47 356 q 190 638 47 550 q 649 726 332 726 q 1132 672 903 726 l 1079 463 q 610 506 867 506 q 376 474 442 506 q 310 356 310 442 q 375 237 310 268 q 610 206 440 206 q 1079 249 867 206 l 1132 39 q 649 -15 903 -15 q 190 74 333 -15 q 47 356 47 163 z "},"Ď":{"ha":1588,"x_min":75,"x_max":1540,"o":"m 1143 1224 l 914 1011 l 675 1011 l 446 1224 l 682 1224 l 794 1126 l 907 1224 l 1143 1224 m 997 0 l 75 0 l 75 947 l 997 947 q 1400 839 1260 947 q 1540 475 1540 731 q 1502 244 1540 339 q 1389 98 1464 150 q 1219 23 1314 46 q 997 0 1125 0 m 357 706 l 357 242 l 971 242 q 1186 290 1124 242 q 1249 475 1249 339 q 1186 658 1249 610 q 971 706 1124 706 l 357 706 z "},"ď":{"ha":1264,"x_min":47,"x_max":1488,"o":"m 926 1042 l 1189 1042 l 1189 0 l 958 0 l 940 97 q 486 -14 690 -14 q 159 70 271 -14 q 47 347 47 154 q 183 635 47 547 q 564 722 318 722 q 926 688 740 722 l 926 1042 m 1358 790 l 1358 810 l 1258 810 l 1258 1042 l 1488 1042 l 1488 785 q 1318 640 1488 640 q 1239 649 1276 640 l 1254 758 q 1308 754 1286 754 q 1349 761 1339 754 q 1358 790 1358 768 m 310 351 q 360 237 310 271 q 528 203 410 203 q 926 269 696 203 l 926 488 q 547 511 703 511 q 369 473 428 511 q 310 351 310 435 z "},"Đ":{"ha":1635,"x_min":14,"x_max":1588,"o":"m 122 392 l 14 392 l 14 554 l 122 554 l 122 947 l 1046 947 q 1447 839 1307 947 q 1588 475 1588 731 q 1549 244 1588 339 q 1437 98 1511 150 q 1268 23 1363 46 q 1046 0 1174 0 l 122 0 l 122 392 m 404 401 l 404 242 l 1018 242 q 1233 290 1171 242 q 1296 475 1296 339 q 1233 658 1296 610 q 1018 706 1171 706 l 404 706 l 404 544 l 760 544 l 760 401 l 404 401 z "},"đ":{"ha":1326,"x_min":47,"x_max":1313,"o":"m 926 1042 l 1189 1042 l 1189 949 l 1313 949 l 1313 813 l 1189 813 l 1189 0 l 958 0 l 940 97 q 486 -14 690 -14 q 159 70 271 -14 q 47 347 47 154 q 183 635 47 547 q 564 722 318 722 q 926 688 740 722 l 926 813 l 606 813 l 606 949 l 926 949 l 926 1042 m 310 351 q 360 237 310 271 q 528 203 410 203 q 926 269 696 203 l 926 488 q 547 511 703 511 q 369 473 428 511 q 310 351 310 435 z "},"Ē":{"ha":1400,"x_min":75,"x_max":1339,"o":"m 1054 1039 l 485 1039 l 485 1199 l 1054 1199 l 1054 1039 m 1339 0 l 75 0 l 75 947 l 1339 947 l 1339 726 l 357 726 l 357 569 l 1313 569 l 1313 388 l 357 388 l 357 221 l 1339 221 l 1339 0 z "},"ē":{"ha":1214,"x_min":47,"x_max":1167,"o":"m 893 854 l 322 854 l 322 1014 l 893 1014 l 893 854 m 649 188 q 1097 224 876 188 l 1150 35 q 625 -19 936 -19 q 185 69 322 -19 q 47 354 47 157 q 188 637 47 547 q 608 726 329 726 q 1167 408 1167 726 q 1160 294 1167 339 l 307 294 q 397 209 324 231 q 649 188 471 188 m 599 551 q 386 525 451 551 q 306 431 321 499 l 907 431 q 828 524 894 496 q 599 551 763 551 z "},"Ĕ":{"ha":1400,"x_min":75,"x_max":1339,"o":"m 876 1232 l 1069 1232 q 767 1010 1069 1010 q 463 1232 463 1010 l 656 1232 q 680 1163 656 1183 q 767 1142 704 1142 q 853 1163 829 1142 q 876 1232 876 1183 m 1339 0 l 75 0 l 75 947 l 1339 947 l 1339 726 l 357 726 l 357 569 l 1313 569 l 1313 388 l 357 388 l 357 221 l 1339 221 l 1339 0 z "},"ĕ":{"ha":1214,"x_min":47,"x_max":1167,"o":"m 717 1035 l 908 1035 q 835 868 908 924 q 606 813 763 813 q 301 1035 301 813 l 494 1035 q 519 965 494 986 q 606 944 543 944 q 692 965 668 944 q 717 1035 717 986 m 649 188 q 1097 224 876 188 l 1150 35 q 625 -19 936 -19 q 185 69 322 -19 q 47 354 47 157 q 188 637 47 547 q 608 726 329 726 q 1167 408 1167 726 q 1160 294 1167 339 l 307 294 q 397 209 324 231 q 649 188 471 188 m 599 551 q 386 525 451 551 q 306 431 321 499 l 907 431 q 828 524 894 496 q 599 551 763 551 z "},"Ė":{"ha":1400,"x_min":75,"x_max":1339,"o":"m 899 1238 l 899 1021 l 638 1021 l 638 1238 l 899 1238 m 1339 0 l 75 0 l 75 947 l 1339 947 l 1339 726 l 357 726 l 357 569 l 1313 569 l 1313 388 l 357 388 l 357 221 l 1339 221 l 1339 0 z "},"ė":{"ha":1214,"x_min":47,"x_max":1167,"o":"m 738 1024 l 738 807 l 476 807 l 476 1024 l 738 1024 m 649 188 q 1097 224 876 188 l 1150 35 q 625 -19 936 -19 q 185 69 322 -19 q 47 354 47 157 q 188 637 47 547 q 608 726 329 726 q 1167 408 1167 726 q 1160 294 1167 339 l 307 294 q 397 209 324 231 q 649 188 471 188 m 599 551 q 386 525 451 551 q 306 431 321 499 l 907 431 q 828 524 894 496 q 599 551 763 551 z "},"Ę":{"ha":1400,"x_min":75,"x_max":1401,"o":"m 1200 0 l 75 0 l 75 947 l 1339 947 l 1339 726 l 357 726 l 357 569 l 1313 569 l 1313 388 l 357 388 l 357 221 l 1339 221 l 1339 0 q 1178 -131 1178 -76 q 1218 -160 1178 -160 q 1364 -124 1279 -160 l 1401 -244 q 1185 -299 1293 -299 q 1025 -183 1025 -299 q 1078 -77 1025 -131 q 1200 0 1131 -24 z "},"ę":{"ha":1214,"x_min":47,"x_max":1167,"o":"m 649 188 q 1097 224 876 188 l 1150 35 q 939 -1 1076 15 q 781 -131 781 -76 q 821 -160 781 -160 q 967 -124 882 -160 l 1004 -244 q 788 -299 896 -299 q 628 -183 628 -299 q 668 -92 628 -139 q 767 -15 708 -44 q 625 -19 694 -19 q 185 69 322 -19 q 47 354 47 157 q 188 637 47 547 q 608 726 329 726 q 1167 408 1167 726 q 1160 294 1167 339 l 307 294 q 397 209 324 231 q 649 188 471 188 m 599 551 q 386 525 451 551 q 306 431 321 499 l 907 431 q 828 524 894 496 q 599 551 763 551 z "},"Ě":{"ha":1400,"x_min":75,"x_max":1339,"o":"m 1118 1224 l 888 1011 l 650 1011 l 421 1224 l 657 1224 l 769 1126 l 882 1224 l 1118 1224 m 1339 0 l 75 0 l 75 947 l 1339 947 l 1339 726 l 357 726 l 357 569 l 1313 569 l 1313 388 l 357 388 l 357 221 l 1339 221 l 1339 0 z "},"ě":{"ha":1214,"x_min":47,"x_max":1167,"o":"m 957 1038 l 726 825 l 489 825 l 260 1038 l 496 1038 l 608 940 l 721 1038 l 957 1038 m 649 188 q 1097 224 876 188 l 1150 35 q 625 -19 936 -19 q 185 69 322 -19 q 47 354 47 157 q 188 637 47 547 q 608 726 329 726 q 1167 408 1167 726 q 1160 294 1167 339 l 307 294 q 397 209 324 231 q 649 188 471 188 m 599 551 q 386 525 451 551 q 306 431 321 499 l 907 431 q 828 524 894 496 q 599 551 763 551 z "},"Ĝ":{"ha":1493,"x_min":47,"x_max":1432,"o":"m 1164 1011 l 928 1011 l 815 1107 l 703 1011 l 467 1011 l 697 1224 l 935 1224 l 1164 1011 m 223 105 q 135 166 223 105 q 47 472 47 226 q 223 840 47 718 q 796 961 399 961 q 1432 883 1104 961 l 1381 649 q 775 719 1017 719 q 499 692 597 719 q 365 614 401 665 q 329 472 329 563 q 365 332 329 383 q 499 253 401 281 q 775 225 597 225 q 1140 254 915 225 l 1140 485 l 1432 485 l 1432 61 q 796 -17 1104 -17 q 223 105 399 -17 z "},"ĝ":{"ha":1257,"x_min":47,"x_max":1199,"o":"m 983 821 l 747 821 l 635 917 l 522 821 l 286 821 l 517 1033 l 754 1033 l 983 821 m 1199 675 l 1199 126 q 1052 -176 1199 -82 q 590 -271 906 -271 q 90 -206 314 -271 l 144 -11 q 607 -68 376 -68 q 878 -20 803 -68 q 949 128 954 28 q 499 56 728 56 q 160 132 274 56 q 47 382 47 208 q 187 644 47 567 q 593 722 326 722 q 1199 676 853 722 l 1197 675 l 1199 675 m 310 382 q 358 286 310 315 q 518 257 406 257 q 936 299 732 257 l 936 493 q 557 511 714 511 q 370 481 431 511 q 310 382 310 451 z "},"Ğ":{"ha":1493,"x_min":47,"x_max":1432,"o":"m 924 1232 l 1117 1232 q 814 1010 1117 1010 q 510 1232 510 1010 l 703 1232 q 727 1163 703 1183 q 814 1142 751 1142 q 900 1163 876 1142 q 924 1232 924 1183 m 223 105 q 135 166 223 105 q 47 472 47 226 q 223 840 47 718 q 796 961 399 961 q 1432 883 1104 961 l 1381 649 q 775 719 1017 719 q 499 692 597 719 q 365 614 401 665 q 329 472 329 563 q 365 332 329 383 q 499 253 401 281 q 775 225 597 225 q 1140 254 915 225 l 1140 485 l 1432 485 l 1432 61 q 796 -17 1104 -17 q 223 105 399 -17 z "},"ğ":{"ha":1257,"x_min":47,"x_max":1199,"o":"m 744 1031 l 936 1031 q 633 808 936 808 q 329 1031 329 808 l 522 1031 q 547 961 522 982 q 633 940 571 940 q 720 961 696 940 q 744 1031 744 982 m 1199 675 l 1199 126 q 1052 -176 1199 -82 q 590 -271 906 -271 q 90 -206 314 -271 l 144 -11 q 607 -68 376 -68 q 878 -20 803 -68 q 949 128 954 28 q 499 56 728 56 q 160 132 274 56 q 47 382 47 208 q 187 644 47 567 q 593 722 326 722 q 1199 676 853 722 l 1197 675 l 1199 675 m 310 382 q 358 286 310 315 q 518 257 406 257 q 936 299 732 257 l 936 493 q 557 511 714 511 q 370 481 431 511 q 310 382 310 451 z "},"Ġ":{"ha":1493,"x_min":47,"x_max":1432,"o":"m 947 1238 l 947 1021 l 685 1021 l 685 1238 l 947 1238 m 223 105 q 135 166 223 105 q 47 472 47 226 q 223 840 47 718 q 796 961 399 961 q 1432 883 1104 961 l 1381 649 q 775 719 1017 719 q 499 692 597 719 q 365 614 401 665 q 329 472 329 563 q 365 332 329 383 q 499 253 401 281 q 775 225 597 225 q 1140 254 915 225 l 1140 485 l 1432 485 l 1432 61 q 796 -17 1104 -17 q 223 105 399 -17 z "},"ġ":{"ha":1257,"x_min":47,"x_max":1199,"o":"m 767 1019 l 767 803 l 504 803 l 504 1019 l 767 1019 m 1199 675 l 1199 126 q 1052 -176 1199 -82 q 590 -271 906 -271 q 90 -206 314 -271 l 144 -11 q 607 -68 376 -68 q 878 -20 803 -68 q 949 128 954 28 q 499 56 728 56 q 160 132 274 56 q 47 382 47 208 q 187 644 47 567 q 593 722 326 722 q 1199 676 853 722 l 1197 675 l 1199 675 m 310 382 q 358 286 310 315 q 518 257 406 257 q 936 299 732 257 l 936 493 q 557 511 714 511 q 370 481 431 511 q 310 382 310 451 z "},"Ģ":{"ha":1493,"x_min":47,"x_max":1432,"o":"m 223 105 q 135 166 223 105 q 47 472 47 226 q 223 840 47 718 q 796 961 399 961 q 1432 883 1104 961 l 1381 649 q 775 719 1017 719 q 499 692 597 719 q 365 614 401 665 q 329 472 329 563 q 365 332 329 383 q 499 253 401 281 q 775 225 597 225 q 1140 254 915 225 l 1140 485 l 1432 485 l 1432 61 q 796 -17 1104 -17 q 223 105 399 -17 m 676 -79 l 940 -79 l 751 -290 l 542 -290 l 676 -79 z "},"ģ":{"ha":1257,"x_min":47,"x_max":1199,"o":"m 746 826 l 422 826 l 631 1038 l 881 1038 l 746 826 m 1199 675 l 1199 126 q 1052 -176 1199 -82 q 590 -271 906 -271 q 90 -206 314 -271 l 144 -11 q 607 -68 376 -68 q 878 -20 803 -68 q 949 128 954 28 q 499 56 728 56 q 160 132 274 56 q 47 382 47 208 q 187 644 47 567 q 593 722 326 722 q 1199 676 853 722 l 1197 675 l 1199 675 m 310 382 q 358 286 310 315 q 518 257 406 257 q 936 299 732 257 l 936 493 q 557 511 714 511 q 370 481 431 511 q 310 382 310 451 z "},"Ĥ":{"ha":1533,"x_min":75,"x_max":1458,"o":"m 1115 1011 l 879 1011 l 767 1107 l 654 1011 l 418 1011 l 649 1224 l 886 1224 l 1115 1011 m 357 0 l 75 0 l 75 947 l 357 947 l 357 606 l 1176 606 l 1176 947 l 1458 947 l 1458 0 l 1176 0 l 1176 365 l 357 365 l 357 0 z "},"ĥ":{"ha":1261,"x_min":72,"x_max":1204,"o":"m 769 1090 l 533 1090 l 421 1188 l 308 1090 l 72 1090 l 301 1303 l 540 1303 l 769 1090 m 75 0 l 75 1042 l 338 1042 l 338 638 q 808 726 588 726 q 1104 647 1004 726 q 1204 393 1204 567 l 1204 0 l 942 0 l 942 349 q 724 508 942 508 q 338 446 565 508 l 338 0 l 75 0 z "},"Ħ":{"ha":1621,"x_min":17,"x_max":1604,"o":"m 119 653 l 17 653 l 17 821 l 119 821 l 119 947 l 401 947 l 401 815 l 1219 815 l 1219 947 l 1501 947 l 1501 821 l 1604 821 l 1604 653 l 1501 653 l 1501 0 l 1219 0 l 1219 315 l 401 315 l 401 0 l 119 0 l 119 653 m 401 658 l 401 536 l 1219 536 l 1219 658 l 401 658 z "},"ħ":{"ha":1325,"x_min":14,"x_max":1268,"o":"m 139 0 l 139 813 l 14 813 l 14 949 l 139 949 l 139 1042 l 400 1042 l 400 949 l 735 949 l 735 813 l 400 813 l 400 636 q 872 726 646 726 q 1168 647 1068 726 q 1268 393 1268 567 l 1268 0 l 1006 0 l 1006 349 q 786 508 1006 508 q 400 446 639 508 l 400 0 l 139 0 z "},"Ĩ":{"ha":432,"x_min":-62,"x_max":507,"o":"m -62 1014 l -62 1160 q 85 1203 14 1203 q 242 1181 144 1203 q 379 1158 339 1158 q 507 1201 433 1158 l 507 1049 q 382 1010 451 1010 q 231 1033 331 1010 q 82 1056 132 1056 q -62 1014 8 1056 m 357 0 l 75 0 l 75 947 l 357 947 l 357 0 z "},"ĩ":{"ha":401,"x_min":-71,"x_max":499,"o":"m -71 831 l -71 978 q 76 1019 4 1019 q 233 998 136 1019 q 369 976 331 976 q 499 1018 428 976 l 499 867 q 374 828 443 828 q 223 850 322 828 q 74 872 124 872 q -71 831 -4 872 m 75 0 l 75 708 l 338 708 l 338 0 l 75 0 z "},"Ī":{"ha":432,"x_min":-68,"x_max":503,"o":"m 503 1036 l -68 1036 l -68 1197 l 503 1197 l 503 1036 m 357 0 l 75 0 l 75 947 l 357 947 l 357 0 z "},"ī":{"ha":401,"x_min":-78,"x_max":492,"o":"m 492 854 l -78 854 l -78 1014 l 492 1014 l 492 854 m 75 0 l 75 708 l 338 708 l 338 0 l 75 0 z "},"Ĭ":{"ha":432,"x_min":-90,"x_max":517,"o":"m 325 1231 l 517 1231 q 444 1064 517 1119 q 214 1008 371 1008 q -90 1231 -90 1008 l 103 1231 q 128 1161 103 1182 q 214 1140 153 1140 q 301 1161 276 1140 q 325 1231 325 1182 m 357 0 l 75 0 l 75 947 l 357 947 l 357 0 z "},"ĭ":{"ha":401,"x_min":-99,"x_max":508,"o":"m 315 1035 l 508 1035 q 206 813 508 813 q -99 1035 -99 813 l 94 1035 q 119 965 94 986 q 206 944 143 944 q 292 965 268 944 q 315 1035 315 986 m 75 0 l 75 708 l 338 708 l 338 0 l 75 0 z "},"Į":{"ha":432,"x_min":43,"x_max":421,"o":"m 218 0 l 75 0 l 75 947 l 357 947 l 357 0 q 196 -131 196 -76 q 236 -160 196 -160 q 382 -124 297 -160 l 421 -244 q 203 -299 310 -299 q 43 -183 43 -299 q 96 -77 43 -131 q 218 0 149 -24 z "},"į":{"ha":413,"x_min":25,"x_max":401,"o":"m 338 1015 l 338 799 l 75 799 l 75 1015 l 338 1015 m 75 0 l 75 708 l 338 708 l 338 0 q 226 -66 274 -31 q 178 -131 178 -101 q 218 -160 178 -160 q 363 -124 278 -160 l 401 -244 q 185 -299 290 -299 q 25 -183 25 -299 q 78 -77 25 -131 q 199 0 132 -24 l 75 0 z "},"İ":{"ha":432,"x_min":75,"x_max":357,"o":"m 347 1235 l 347 1019 l 85 1019 l 85 1235 l 347 1235 m 357 0 l 75 0 l 75 947 l 357 947 l 357 0 z "},"ı":{"ha":401,"x_min":75,"x_max":338,"o":"m 75 0 l 75 708 l 338 708 l 338 0 l 75 0 z "},"Ĳ":{"ha":1117,"x_min":75,"x_max":1057,"o":"m 461 221 q 712 267 649 221 q 775 424 775 313 l 775 947 l 1057 947 l 1057 422 q 924 92 1057 204 q 471 -21 792 -21 q 89 33 251 -21 l 151 263 q 461 221 290 221 m 357 385 l 75 385 l 75 936 l 357 936 l 357 385 z "},"ĳ":{"ha":878,"x_min":75,"x_max":753,"o":"m 338 1015 l 338 799 l 75 799 l 75 1015 l 338 1015 m 753 1015 l 753 799 l 492 799 l 492 1015 l 753 1015 m 75 0 l 75 708 l 338 708 l 338 0 l 75 0 m 629 -253 l 357 -253 q 492 138 492 -64 l 492 708 l 753 708 l 753 136 q 629 -253 753 -92 z "},"Ĵ":{"ha":1039,"x_min":10,"x_max":1182,"o":"m 1182 1008 l 946 1008 l 833 1106 l 721 1008 l 485 1008 l 715 1221 l 953 1221 l 1182 1008 m 383 221 q 633 267 571 221 q 696 424 696 313 l 696 947 l 978 947 l 978 422 q 949 237 978 315 q 853 99 919 158 q 672 10 788 40 q 393 -21 557 -21 q 10 33 175 -21 l 74 263 q 383 221 214 221 z "},"ĵ":{"ha":422,"x_min":-122,"x_max":575,"o":"m 575 825 l 339 825 l 226 921 l 114 825 l -122 825 l 107 1038 l 344 1038 l 575 825 m 213 -253 l -60 -253 q 75 138 75 -71 l 75 708 l 338 708 l 338 136 q 213 -253 338 -90 z "},"Ķ":{"ha":1513,"x_min":75,"x_max":1451,"o":"m 357 0 l 75 0 l 75 947 l 357 947 l 357 474 l 524 608 l 1036 947 l 1424 947 l 853 546 l 1451 0 l 1078 0 l 633 406 l 357 224 l 357 0 m 625 -79 l 888 -79 l 700 -290 l 489 -290 l 625 -79 z "},"ķ":{"ha":1200,"x_min":75,"x_max":1226,"o":"m 338 1042 l 338 481 l 542 481 l 858 708 l 1208 708 l 763 374 l 1226 0 l 874 0 l 538 267 l 338 267 l 338 0 l 75 0 l 75 1042 l 338 1042 m 485 -79 l 747 -79 l 560 -290 l 350 -290 l 485 -79 z "},"Ĺ":{"ha":1325,"x_min":75,"x_max":1297,"o":"m 265 1219 l 590 1219 l 333 1008 l 82 1008 l 265 1219 m 357 242 l 1297 242 l 1297 0 l 75 0 l 75 947 l 357 947 l 357 242 z "},"ĺ":{"ha":413,"x_min":68,"x_max":576,"o":"m 251 1297 l 576 1297 l 319 1086 l 68 1086 l 251 1297 m 338 1042 l 338 0 l 75 0 l 75 1042 l 338 1042 z "},"Ļ":{"ha":1325,"x_min":75,"x_max":1297,"o":"m 357 242 l 1297 242 l 1297 0 l 75 0 l 75 947 l 357 947 l 357 242 m 583 -79 l 846 -79 l 658 -290 l 449 -290 l 583 -79 z "},"ļ":{"ha":413,"x_min":-78,"x_max":338,"o":"m 338 1042 l 338 0 l 75 0 l 75 1042 l 338 1042 m 57 -79 l 319 -79 l 132 -290 l -78 -290 l 57 -79 z "},"Ľ":{"ha":1325,"x_min":75,"x_max":1297,"o":"m 357 242 l 1297 242 l 1297 0 l 75 0 l 75 947 l 357 947 l 357 242 m 715 696 l 715 715 l 614 715 l 614 947 l 843 947 l 843 690 q 675 546 843 546 q 594 554 632 546 l 611 664 q 665 660 643 660 q 706 667 696 660 q 715 696 715 674 z "},"ľ":{"ha":413,"x_min":75,"x_max":633,"o":"m 338 1042 l 338 0 l 75 0 l 75 1042 l 338 1042 m 506 790 l 506 810 l 404 810 l 404 1042 l 633 1042 l 633 785 q 465 640 633 640 q 385 649 422 640 l 401 758 q 456 754 432 754 q 496 761 486 754 q 506 790 506 768 z "},"Ŀ":{"ha":1325,"x_min":75,"x_max":1297,"o":"m 357 242 l 1297 242 l 1297 0 l 75 0 l 75 947 l 357 947 l 357 242 m 931 721 l 931 443 l 658 443 l 658 721 l 931 721 z "},"ŀ":{"ha":661,"x_min":75,"x_max":668,"o":"m 338 1042 l 338 0 l 75 0 l 75 1042 l 338 1042 m 668 596 l 668 379 l 406 379 l 406 596 l 668 596 z "},"Ł":{"ha":1406,"x_min":14,"x_max":1378,"o":"m 14 404 l 156 460 l 156 947 l 438 947 l 438 572 l 879 747 l 879 590 l 438 415 l 438 242 l 1378 242 l 1378 0 l 156 0 l 156 303 l 14 247 l 14 404 z "},"ł":{"ha":489,"x_min":14,"x_max":475,"o":"m 114 360 l 14 317 l 14 481 l 114 524 l 114 1042 l 376 1042 l 376 629 l 475 671 l 475 507 l 376 465 l 376 0 l 114 0 l 114 360 z "},"Ń":{"ha":1568,"x_min":75,"x_max":1493,"o":"m 872 1221 l 1196 1221 l 940 1011 l 689 1011 l 872 1221 m 357 0 l 75 0 l 75 947 l 397 947 l 1211 307 l 1211 947 l 1493 947 l 1493 0 l 1178 0 l 357 651 l 357 0 z "},"ń":{"ha":1261,"x_min":75,"x_max":1204,"o":"m 733 1038 l 1058 1038 l 788 826 l 536 826 l 733 1038 m 75 0 l 75 708 l 306 708 l 321 624 q 808 726 582 726 q 1104 647 1004 726 q 1204 393 1204 567 l 1204 0 l 942 0 l 942 349 q 724 508 942 508 q 338 446 565 508 l 338 0 l 75 0 z "},"Ņ":{"ha":1568,"x_min":75,"x_max":1493,"o":"m 357 0 l 75 0 l 75 947 l 397 947 l 1211 307 l 1211 947 l 1493 947 l 1493 0 l 1178 0 l 357 651 l 357 0 m 671 -79 l 933 -79 l 744 -290 l 535 -290 l 671 -79 z "},"ņ":{"ha":1261,"x_min":75,"x_max":1204,"o":"m 75 0 l 75 708 l 306 708 l 321 624 q 808 726 582 726 q 1104 647 1004 726 q 1204 393 1204 567 l 1204 0 l 942 0 l 942 349 q 724 508 942 508 q 338 446 565 508 l 338 0 l 75 0 m 531 -79 l 794 -79 l 606 -290 l 396 -290 l 531 -79 z "},"Ň":{"ha":1568,"x_min":75,"x_max":1493,"o":"m 1176 1224 l 946 1011 l 708 1011 l 479 1224 l 715 1224 l 828 1126 l 940 1224 l 1176 1224 m 357 0 l 75 0 l 75 947 l 397 947 l 1211 307 l 1211 947 l 1493 947 l 1493 0 l 1178 0 l 357 651 l 357 0 z "},"ň":{"ha":1261,"x_min":75,"x_max":1204,"o":"m 1021 1038 l 790 825 l 553 825 l 324 1038 l 558 1038 l 672 940 l 785 1038 l 1021 1038 m 75 0 l 75 708 l 306 708 l 321 624 q 808 726 582 726 q 1104 647 1004 726 q 1204 393 1204 567 l 1204 0 l 942 0 l 942 349 q 724 508 942 508 q 338 446 565 508 l 338 0 l 75 0 z "},"Ō":{"ha":1650,"x_min":47,"x_max":1603,"o":"m 1111 1039 l 542 1039 l 542 1199 l 1111 1199 l 1111 1039 m 1417 99 q 1324 40 1417 99 q 825 -19 1231 -19 q 233 99 419 -19 q 47 474 47 218 q 233 848 47 729 q 825 967 419 967 q 1417 848 1231 967 q 1603 474 1603 729 q 1417 99 1603 218 m 825 222 q 1210 278 1106 222 q 1315 474 1315 333 q 1210 669 1315 614 q 825 725 1106 725 q 436 669 543 725 q 329 474 329 613 q 436 278 329 335 q 825 222 543 222 z "},"ō":{"ha":1336,"x_min":47,"x_max":1289,"o":"m 956 850 l 386 850 l 386 1011 l 956 1011 l 956 850 m 199 72 q 123 117 199 72 q 47 356 47 163 q 199 639 47 549 q 668 729 351 729 q 1136 639 983 729 q 1289 356 1289 549 q 1136 72 1289 163 q 668 -18 983 -18 q 199 72 351 -18 m 385 474 q 348 457 385 474 q 310 356 310 440 q 385 237 310 271 q 668 203 461 203 q 951 237 875 203 q 1026 356 1026 271 q 951 474 1026 440 q 668 508 875 508 q 385 474 461 508 z "},"Ŏ":{"ha":1650,"x_min":47,"x_max":1603,"o":"m 933 1232 l 1126 1232 q 824 1010 1126 1010 q 519 1232 519 1010 l 713 1232 q 737 1163 713 1183 q 824 1142 761 1142 q 910 1163 886 1142 q 933 1232 933 1183 m 1417 99 q 1324 40 1417 99 q 825 -19 1231 -19 q 233 99 419 -19 q 47 474 47 218 q 233 848 47 729 q 825 967 419 967 q 1417 848 1231 967 q 1603 474 1603 729 q 1417 99 1603 218 m 825 222 q 1210 278 1106 222 q 1315 474 1315 333 q 1210 669 1315 614 q 825 725 1106 725 q 436 669 543 725 q 329 474 329 613 q 436 278 329 335 q 825 222 543 222 z "},"ŏ":{"ha":1336,"x_min":47,"x_max":1289,"o":"m 779 1035 l 972 1035 q 669 813 972 813 q 365 1035 365 813 l 558 1035 q 583 965 558 986 q 669 944 607 944 q 756 965 732 944 q 779 1035 779 986 m 199 72 q 123 117 199 72 q 47 356 47 163 q 199 639 47 549 q 668 729 351 729 q 1136 639 983 729 q 1289 356 1289 549 q 1136 72 1289 163 q 668 -18 983 -18 q 199 72 351 -18 m 385 474 q 348 457 385 474 q 310 356 310 440 q 385 237 310 271 q 668 203 461 203 q 951 237 875 203 q 1026 356 1026 271 q 951 474 1026 440 q 668 508 875 508 q 385 474 461 508 z "},"Ő":{"ha":1650,"x_min":47,"x_max":1603,"o":"m 661 1221 l 933 1221 l 719 1011 l 517 1011 l 661 1221 m 1038 1221 l 1310 1221 l 1067 1011 l 864 1011 l 1038 1221 m 1417 99 q 1324 40 1417 99 q 825 -19 1231 -19 q 233 99 419 -19 q 47 474 47 218 q 233 848 47 729 q 825 967 419 967 q 1417 848 1231 967 q 1603 474 1603 729 q 1417 99 1603 218 m 825 222 q 1210 278 1106 222 q 1315 474 1315 333 q 1210 669 1315 614 q 825 725 1106 725 q 436 669 543 725 q 329 474 329 613 q 436 278 329 335 q 825 222 543 222 z "},"ő":{"ha":1336,"x_min":47,"x_max":1289,"o":"m 510 1038 l 781 1038 l 568 826 l 365 826 l 510 1038 m 886 1038 l 1158 1038 l 915 826 l 713 826 l 886 1038 m 199 72 q 123 117 199 72 q 47 356 47 163 q 199 639 47 549 q 668 729 351 729 q 1136 639 983 729 q 1289 356 1289 549 q 1136 72 1289 163 q 668 -18 983 -18 q 199 72 351 -18 m 385 474 q 348 457 385 474 q 310 356 310 440 q 385 237 310 271 q 668 203 461 203 q 951 237 875 203 q 1026 356 1026 271 q 951 474 1026 440 q 668 508 875 508 q 385 474 461 508 z "},"Œ":{"ha":2563,"x_min":47,"x_max":2501,"o":"m 233 99 q 140 159 233 99 q 47 474 47 218 q 233 848 47 729 q 825 967 419 967 q 1115 947 983 967 l 2501 947 l 2501 726 l 1496 726 q 1597 569 1588 675 l 2475 569 l 2475 388 l 1597 388 q 1496 221 1593 271 l 2501 221 l 2501 0 l 1115 0 q 825 -19 983 -19 q 233 99 419 -19 m 436 669 q 383 641 436 669 q 329 474 329 613 q 436 278 329 335 q 825 222 543 222 q 1210 278 1106 222 q 1315 474 1315 333 q 1210 669 1315 614 q 825 725 1106 725 q 436 669 543 725 z "},"œ":{"ha":2193,"x_min":47,"x_max":2146,"o":"m 199 72 q 123 117 199 72 q 47 356 47 163 q 199 639 47 549 q 668 729 351 729 q 1154 626 1004 729 q 1589 726 1290 726 q 2146 408 2146 726 q 2140 294 2146 331 l 1288 294 q 1378 209 1304 231 q 1629 188 1451 188 q 2078 224 1857 188 l 2131 35 q 1604 -19 1914 -19 q 1149 81 1282 -19 q 668 -18 997 -18 q 199 72 351 -18 m 1579 551 q 1367 525 1432 551 q 1286 431 1301 499 l 1888 431 q 1809 524 1875 496 q 1579 551 1743 551 m 385 474 q 348 457 385 474 q 310 356 310 440 q 385 237 310 271 q 668 203 461 203 q 951 237 875 203 q 1026 356 1026 271 q 951 474 1026 440 q 668 508 875 508 q 385 474 461 508 z "},"Ŕ":{"ha":1468,"x_min":75,"x_max":1419,"o":"m 731 1221 l 1056 1221 l 799 1011 l 547 1011 l 731 1221 m 357 0 l 75 0 l 75 947 l 1024 947 q 1419 617 1419 947 q 1086 292 1419 318 l 1025 290 l 1100 244 l 1411 0 l 1057 0 l 717 275 l 357 275 l 357 0 m 357 706 l 357 486 l 996 486 q 1097 511 1065 486 q 1128 594 1128 536 q 1097 681 1128 657 q 996 706 1067 706 l 357 706 z "},"ŕ":{"ha":881,"x_min":75,"x_max":869,"o":"m 544 1038 l 869 1038 l 599 826 l 346 826 l 544 1038 m 75 0 l 75 708 l 306 708 l 326 588 q 847 726 594 726 l 847 490 q 338 408 565 490 l 338 0 l 75 0 z "},"Ŗ":{"ha":1468,"x_min":75,"x_max":1419,"o":"m 357 0 l 75 0 l 75 947 l 1024 947 q 1419 617 1419 947 q 1086 292 1419 318 l 1025 290 l 1100 244 l 1411 0 l 1057 0 l 717 275 l 357 275 l 357 0 m 357 706 l 357 486 l 996 486 q 1097 511 1065 486 q 1128 594 1128 536 q 1097 681 1128 657 q 996 706 1067 706 l 357 706 m 531 -79 l 794 -79 l 606 -290 l 396 -290 l 531 -79 z "},"ŗ":{"ha":881,"x_min":-81,"x_max":847,"o":"m 75 0 l 75 708 l 306 708 l 326 588 q 847 726 594 726 l 847 490 q 338 408 565 490 l 338 0 l 75 0 m 54 -79 l 318 -79 l 129 -290 l -81 -290 l 54 -79 z "},"Ř":{"ha":1468,"x_min":75,"x_max":1419,"o":"m 1035 1224 l 806 1011 l 568 1011 l 338 1224 l 574 1224 l 686 1126 l 799 1224 l 1035 1224 m 357 0 l 75 0 l 75 947 l 1024 947 q 1419 617 1419 947 q 1086 292 1419 318 l 1025 290 l 1100 244 l 1411 0 l 1057 0 l 717 275 l 357 275 l 357 0 m 357 706 l 357 486 l 996 486 q 1097 511 1065 486 q 1128 594 1128 536 q 1097 681 1128 657 q 996 706 1067 706 l 357 706 z "},"ř":{"ha":881,"x_min":75,"x_max":847,"o":"m 831 1038 l 601 825 l 363 825 l 133 1038 l 369 1038 l 482 940 l 594 1038 l 831 1038 m 75 0 l 75 708 l 306 708 l 326 588 q 847 726 594 726 l 847 490 q 338 408 565 490 l 338 0 l 75 0 z "},"Ś":{"ha":1406,"x_min":53,"x_max":1353,"o":"m 718 1221 l 1043 1221 l 788 1011 l 535 1011 l 718 1221 m 1353 269 q 1299 105 1353 165 q 1113 13 1246 44 q 749 -18 981 -18 q 388 3 576 -18 q 68 57 200 25 l 108 283 q 824 203 472 203 q 1036 218 986 203 q 1086 278 1086 233 q 1063 331 1086 318 q 978 350 1040 344 l 454 381 q 146 460 239 390 q 53 665 53 529 q 200 894 53 824 q 678 964 347 964 q 990 945 808 964 q 1307 897 1171 926 l 1261 685 q 613 743 967 743 q 372 730 425 743 q 319 672 319 717 q 346 622 319 635 q 442 606 372 610 l 958 575 q 1258 490 1163 564 q 1353 269 1353 417 z "},"ś":{"ha":1140,"x_min":47,"x_max":1108,"o":"m 625 1038 l 950 1038 l 678 826 l 426 826 l 625 1038 m 1108 201 q 992 28 1108 75 q 604 -19 875 -19 q 61 42 306 -19 l 106 211 q 651 156 365 156 q 820 165 776 156 q 864 203 864 174 q 835 242 864 232 q 718 257 806 251 l 372 276 q 121 339 194 286 q 47 508 47 392 q 174 683 47 636 q 575 729 300 729 q 1064 683 785 729 l 1025 513 q 514 558 772 558 q 336 549 381 558 q 292 511 292 540 q 305 481 292 492 q 338 468 318 471 q 400 463 358 465 l 746 442 q 1021 377 933 431 q 1108 201 1108 324 z "},"Ŝ":{"ha":1406,"x_min":53,"x_max":1353,"o":"m 1021 1011 l 785 1011 l 672 1107 l 560 1011 l 324 1011 l 554 1224 l 792 1224 l 1021 1011 m 1353 269 q 1299 105 1353 165 q 1113 13 1246 44 q 749 -18 981 -18 q 388 3 576 -18 q 68 57 200 25 l 108 283 q 824 203 472 203 q 1036 218 986 203 q 1086 278 1086 233 q 1063 331 1086 318 q 978 350 1040 344 l 454 381 q 146 460 239 390 q 53 665 53 529 q 200 894 53 824 q 678 964 347 964 q 990 945 808 964 q 1307 897 1171 926 l 1261 685 q 613 743 967 743 q 372 730 425 743 q 319 672 319 717 q 346 622 319 635 q 442 606 372 610 l 958 575 q 1258 490 1163 564 q 1353 269 1353 417 z "},"ŝ":{"ha":1140,"x_min":47,"x_max":1108,"o":"m 910 825 l 674 825 l 561 921 l 449 825 l 213 825 l 443 1038 l 681 1038 l 910 825 m 1108 201 q 992 28 1108 75 q 604 -19 875 -19 q 61 42 306 -19 l 106 211 q 651 156 365 156 q 820 165 776 156 q 864 203 864 174 q 835 242 864 232 q 718 257 806 251 l 372 276 q 121 339 194 286 q 47 508 47 392 q 174 683 47 636 q 575 729 300 729 q 1064 683 785 729 l 1025 513 q 514 558 772 558 q 336 549 381 558 q 292 511 292 540 q 305 481 292 492 q 338 468 318 471 q 400 463 358 465 l 746 442 q 1021 377 933 431 q 1108 201 1108 324 z "},"Ş":{"ha":1406,"x_min":53,"x_max":1353,"o":"m 1353 269 q 1299 105 1353 165 q 1113 13 1246 44 q 749 -18 981 -18 q 388 3 576 -18 q 68 57 200 25 l 108 283 q 824 203 472 203 q 1036 218 986 203 q 1086 278 1086 233 q 1063 331 1086 318 q 978 350 1040 344 l 454 381 q 146 460 239 390 q 53 665 53 529 q 200 894 53 824 q 678 964 347 964 q 990 945 808 964 q 1307 897 1171 926 l 1261 685 q 613 743 967 743 q 372 730 425 743 q 319 672 319 717 q 346 622 319 635 q 442 606 372 610 l 958 575 q 1258 490 1163 564 q 1353 269 1353 417 m 646 -71 l 804 -71 l 804 -117 q 756 -267 804 -224 q 588 -311 708 -311 q 401 -286 488 -311 l 433 -150 q 571 -167 517 -167 q 628 -154 611 -167 q 646 -106 646 -142 l 646 -71 z "},"ş":{"ha":1140,"x_min":47,"x_max":1108,"o":"m 1108 201 q 992 28 1108 75 q 604 -19 875 -19 q 61 42 306 -19 l 106 211 q 651 156 365 156 q 820 165 776 156 q 864 203 864 174 q 835 242 864 232 q 718 257 806 251 l 372 276 q 121 339 194 286 q 47 508 47 392 q 174 683 47 636 q 575 729 300 729 q 1064 683 785 729 l 1025 513 q 514 558 772 558 q 336 549 381 558 q 292 511 292 540 q 305 481 292 492 q 338 468 318 471 q 400 463 358 465 l 746 442 q 1021 377 933 431 q 1108 201 1108 324 m 549 -57 l 708 -57 l 708 -103 q 660 -253 708 -210 q 492 -297 613 -297 q 304 -272 390 -297 l 336 -136 q 474 -153 419 -153 q 531 -140 514 -153 q 549 -92 549 -128 l 549 -57 z "},"Š":{"ha":1406,"x_min":53,"x_max":1353,"o":"m 1022 1224 l 793 1011 l 556 1011 l 325 1224 l 561 1224 l 674 1126 l 786 1224 l 1022 1224 m 1353 269 q 1299 105 1353 165 q 1113 13 1246 44 q 749 -18 981 -18 q 388 3 576 -18 q 68 57 200 25 l 108 283 q 824 203 472 203 q 1036 218 986 203 q 1086 278 1086 233 q 1063 331 1086 318 q 978 350 1040 344 l 454 381 q 146 460 239 390 q 53 665 53 529 q 200 894 53 824 q 678 964 347 964 q 990 945 808 964 q 1307 897 1171 926 l 1261 685 q 613 743 967 743 q 372 730 425 743 q 319 672 319 717 q 346 622 319 635 q 442 606 372 610 l 958 575 q 1258 490 1163 564 q 1353 269 1353 417 z "},"š":{"ha":1140,"x_min":47,"x_max":1108,"o":"m 911 1038 l 682 825 l 443 825 l 214 1038 l 450 1038 l 563 940 l 675 1038 l 911 1038 m 1108 201 q 992 28 1108 75 q 604 -19 875 -19 q 61 42 306 -19 l 106 211 q 651 156 365 156 q 820 165 776 156 q 864 203 864 174 q 835 242 864 232 q 718 257 806 251 l 372 276 q 121 339 194 286 q 47 508 47 392 q 174 683 47 636 q 575 729 300 729 q 1064 683 785 729 l 1025 513 q 514 558 772 558 q 336 549 381 558 q 292 511 292 540 q 305 481 292 492 q 338 468 318 471 q 400 463 358 465 l 746 442 q 1021 377 933 431 q 1108 201 1108 324 z "},"Ţ":{"ha":1464,"x_min":29,"x_max":1435,"o":"m 592 706 l 29 706 l 29 947 l 1435 947 l 1435 706 l 874 706 l 874 0 l 592 0 l 592 706 m 693 -57 l 851 -57 l 851 -103 q 804 -253 851 -210 q 636 -297 757 -297 q 449 -272 535 -297 l 481 -136 q 618 -153 564 -153 q 676 -140 658 -153 q 693 -92 693 -128 l 693 -57 z "},"ţ":{"ha":1053,"x_min":13,"x_max":1038,"o":"m 164 333 l 164 497 l 13 497 l 13 708 l 171 708 l 217 892 l 428 892 l 428 708 l 981 708 l 981 497 l 428 497 l 428 361 q 474 236 428 269 q 644 203 519 203 q 988 243 786 203 l 1038 35 q 621 -19 818 -19 q 276 62 388 -19 q 164 333 164 143 m 553 -57 l 711 -57 l 711 -103 q 663 -253 711 -210 q 494 -297 615 -297 q 308 -272 394 -297 l 339 -136 q 478 -153 425 -153 q 535 -140 518 -153 q 553 -92 553 -128 l 553 -57 z "},"Ť":{"ha":1464,"x_min":29,"x_max":1435,"o":"m 1082 1224 l 853 1011 l 614 1011 l 385 1224 l 621 1224 l 733 1126 l 846 1224 l 1082 1224 m 592 706 l 29 706 l 29 947 l 1435 947 l 1435 706 l 874 706 l 874 0 l 592 0 l 592 706 z "},"ť":{"ha":1053,"x_min":13,"x_max":1038,"o":"m 635 935 l 635 956 l 533 956 l 533 1188 l 763 1188 l 763 929 q 594 785 763 785 q 514 794 558 785 l 531 903 q 556 901 538 903 q 585 899 575 899 q 624 906 614 899 q 635 935 635 914 m 164 333 l 164 497 l 13 497 l 13 708 l 171 708 l 217 892 l 428 892 l 428 708 l 981 708 l 981 497 l 428 497 l 428 361 q 474 236 428 269 q 644 203 519 203 q 988 243 786 203 l 1038 35 q 621 -19 818 -19 q 276 62 388 -19 q 164 333 164 143 z "},"Ŧ":{"ha":1464,"x_min":29,"x_max":1435,"o":"m 592 706 l 29 706 l 29 947 l 1435 947 l 1435 706 l 874 706 l 874 486 l 1207 486 l 1207 319 l 874 319 l 874 0 l 592 0 l 592 319 l 257 319 l 257 486 l 592 486 l 592 706 z "},"ŧ":{"ha":1069,"x_min":22,"x_max":1047,"o":"m 990 301 l 439 301 q 492 200 444 228 q 654 172 539 172 q 1004 214 796 172 l 1047 35 q 631 -19 828 -19 q 296 55 407 -19 q 175 301 185 129 l 22 301 l 22 453 l 174 453 l 174 557 l 22 557 l 22 708 l 181 708 l 226 892 l 438 892 l 438 708 l 990 708 l 990 557 l 438 557 l 438 453 l 990 453 l 990 301 z "},"Ũ":{"ha":1492,"x_min":61,"x_max":1431,"o":"m 468 1014 l 468 1160 q 615 1203 544 1203 q 772 1181 675 1203 q 908 1158 869 1158 q 1036 1201 965 1158 l 1036 1049 q 913 1010 983 1010 q 761 1033 861 1010 q 611 1056 661 1056 q 468 1014 539 1056 m 1149 501 l 1149 947 l 1431 947 l 1431 442 q 1251 96 1431 207 q 746 -15 1072 -15 q 240 96 419 -15 q 61 442 61 207 l 61 947 l 343 947 l 343 501 q 438 288 343 351 q 746 225 532 225 q 1054 288 960 225 q 1149 501 1149 351 z "},"ũ":{"ha":1256,"x_min":58,"x_max":1190,"o":"m 390 831 l 390 978 q 536 1019 461 1019 q 693 998 596 1019 q 831 976 790 976 q 958 1018 888 976 l 958 867 q 833 828 903 828 q 683 850 782 828 q 533 872 583 872 q 390 831 456 872 m 58 314 l 58 708 l 319 708 l 319 358 q 543 199 319 199 q 929 264 696 199 l 929 708 l 1190 708 l 1190 0 l 961 0 l 946 85 q 457 -19 679 -19 q 159 60 260 -19 q 58 314 58 140 z "},"Ū":{"ha":1492,"x_min":61,"x_max":1431,"o":"m 1032 1036 l 463 1036 l 463 1197 l 1032 1197 l 1032 1036 m 1149 501 l 1149 947 l 1431 947 l 1431 442 q 1251 96 1431 207 q 746 -15 1072 -15 q 240 96 419 -15 q 61 442 61 207 l 61 947 l 343 947 l 343 501 q 438 288 343 351 q 746 225 532 225 q 1054 288 960 225 q 1149 501 1149 351 z "},"ū":{"ha":1256,"x_min":58,"x_max":1190,"o":"m 951 854 l 382 854 l 382 1014 l 951 1014 l 951 854 m 58 314 l 58 708 l 319 708 l 319 358 q 543 199 319 199 q 929 264 696 199 l 929 708 l 1190 708 l 1190 0 l 961 0 l 946 85 q 457 -19 679 -19 q 159 60 260 -19 q 58 314 58 140 z "},"Ŭ":{"ha":1492,"x_min":61,"x_max":1431,"o":"m 854 1231 l 1047 1231 q 744 1008 1047 1008 q 440 1231 440 1008 l 633 1231 q 658 1161 633 1182 q 744 1140 682 1140 q 831 1161 807 1140 q 854 1231 854 1182 m 1149 501 l 1149 947 l 1431 947 l 1431 442 q 1251 96 1431 207 q 746 -15 1072 -15 q 240 96 419 -15 q 61 442 61 207 l 61 947 l 343 947 l 343 501 q 438 288 343 351 q 746 225 532 225 q 1054 288 960 225 q 1149 501 1149 351 z "},"ŭ":{"ha":1256,"x_min":58,"x_max":1190,"o":"m 775 1035 l 968 1035 q 665 813 968 813 q 361 1035 361 813 l 554 1035 q 578 965 554 986 q 665 944 603 944 q 751 965 728 944 q 775 1035 775 986 m 58 314 l 58 708 l 319 708 l 319 358 q 543 199 319 199 q 929 264 696 199 l 929 708 l 1190 708 l 1190 0 l 961 0 l 946 85 q 457 -19 679 -19 q 159 60 260 -19 q 58 314 58 140 z "},"Ů":{"ha":1492,"x_min":61,"x_max":1431,"o":"m 746 1007 q 531 1164 531 1007 q 746 1315 531 1315 q 960 1164 960 1315 q 746 1007 960 1007 m 650 1163 q 670 1118 650 1132 q 746 1104 690 1104 q 820 1118 800 1104 q 840 1163 840 1132 q 820 1205 840 1192 q 746 1218 800 1218 q 670 1205 690 1218 q 650 1163 650 1192 m 1149 501 l 1149 947 l 1431 947 l 1431 442 q 1251 96 1431 207 q 746 -15 1072 -15 q 240 96 419 -15 q 61 442 61 207 l 61 947 l 343 947 l 343 501 q 438 288 343 351 q 746 225 532 225 q 1054 288 960 225 q 1149 501 1149 351 z "},"ů":{"ha":1256,"x_min":58,"x_max":1190,"o":"m 665 817 q 450 972 450 817 q 665 1124 450 1124 q 879 972 879 1124 q 665 817 879 817 m 569 972 q 590 927 569 942 q 665 913 610 913 q 740 926 721 913 q 760 972 760 940 q 740 1013 760 1000 q 665 1026 721 1026 q 590 1013 610 1026 q 569 972 569 1000 m 58 314 l 58 708 l 319 708 l 319 358 q 543 199 319 199 q 929 264 696 199 l 929 708 l 1190 708 l 1190 0 l 961 0 l 946 85 q 457 -19 679 -19 q 159 60 260 -19 q 58 314 58 140 z "},"Ű":{"ha":1492,"x_min":61,"x_max":1431,"o":"m 582 1219 l 854 1219 l 642 1008 l 438 1008 l 582 1219 m 958 1219 l 1231 1219 l 989 1008 l 785 1008 l 958 1219 m 1149 501 l 1149 947 l 1431 947 l 1431 442 q 1251 96 1431 207 q 746 -15 1072 -15 q 240 96 419 -15 q 61 442 61 207 l 61 947 l 343 947 l 343 501 q 438 288 343 351 q 746 225 532 225 q 1054 288 960 225 q 1149 501 1149 351 z "},"ű":{"ha":1256,"x_min":58,"x_max":1190,"o":"m 506 1038 l 778 1038 l 565 826 l 361 826 l 506 1038 m 882 1038 l 1154 1038 l 913 826 l 708 826 l 882 1038 m 58 314 l 58 708 l 319 708 l 319 358 q 543 199 319 199 q 929 264 696 199 l 929 708 l 1190 708 l 1190 0 l 961 0 l 946 85 q 457 -19 679 -19 q 159 60 260 -19 q 58 314 58 140 z "},"Ų":{"ha":1492,"x_min":61,"x_max":1431,"o":"m 1149 501 l 1149 947 l 1431 947 l 1431 442 q 969 0 1431 69 l 971 0 q 859 -66 907 -31 q 811 -131 811 -101 q 851 -160 811 -160 q 996 -124 911 -160 l 1035 -244 q 818 -299 924 -299 q 658 -183 658 -299 q 699 -90 658 -137 q 797 -14 739 -43 q 746 -15 781 -15 q 240 96 419 -15 q 61 442 61 207 l 61 947 l 343 947 l 343 501 q 438 288 343 351 q 746 225 532 225 q 1054 288 960 225 q 1149 501 1149 351 z "},"ų":{"ha":1256,"x_min":58,"x_max":1256,"o":"m 58 314 l 58 708 l 319 708 l 319 358 q 543 199 319 199 q 929 264 696 199 l 929 708 l 1190 708 l 1190 0 l 1192 0 q 1031 -131 1031 -76 q 1071 -160 1031 -160 q 1217 -124 1132 -160 l 1256 -244 q 1039 -299 1144 -299 q 878 -183 878 -299 q 932 -77 878 -131 q 1051 0 986 -24 l 961 0 l 946 85 q 457 -19 679 -19 q 159 60 260 -19 q 58 314 58 140 z "},"Ŵ":{"ha":2285,"x_min":24,"x_max":2261,"o":"m 1490 1011 l 1256 1011 l 1143 1107 l 1029 1011 l 793 1011 l 1024 1224 l 1261 1224 l 1490 1011 m 446 0 l 24 947 l 342 947 l 635 257 l 974 947 l 1310 947 l 1657 257 l 1943 947 l 2261 947 l 1839 0 l 1478 0 l 1143 674 l 807 0 l 446 0 z "},"ŵ":{"ha":1894,"x_min":4,"x_max":1889,"o":"m 1285 825 l 1049 825 l 936 921 l 822 825 l 588 825 l 817 1038 l 1054 1038 l 1285 825 m 774 708 l 1104 708 l 1378 214 l 1611 708 l 1889 708 l 1526 0 l 1224 0 l 933 518 l 643 0 l 342 0 l 4 708 l 278 708 l 506 217 l 774 708 z "},"Ŷ":{"ha":1571,"x_min":1,"x_max":1568,"o":"m 1136 1011 l 900 1011 l 788 1107 l 675 1011 l 439 1011 l 668 1224 l 907 1224 l 1136 1011 m 643 351 l 1 947 l 363 947 l 788 564 l 1213 947 l 1568 947 l 925 350 l 925 0 l 643 0 l 643 351 z "},"ŷ":{"ha":1279,"x_min":58,"x_max":1210,"o":"m 1003 825 l 767 825 l 654 921 l 542 825 l 306 825 l 535 1038 l 774 1038 l 1003 825 m 58 414 l 58 708 l 319 708 l 319 454 q 374 330 319 365 q 572 294 428 294 q 947 332 747 294 l 947 708 l 1210 708 l 1210 157 q 1074 -175 1210 -79 q 631 -271 938 -271 q 111 -206 347 -271 l 157 -6 q 649 -68 411 -68 q 899 -20 829 -68 q 960 144 968 28 l 957 151 q 510 79 710 79 q 162 158 265 79 q 58 414 58 236 z "},"Ÿ":{"ha":1571,"x_min":1,"x_max":1568,"o":"m 721 1226 l 721 1011 l 490 1011 l 490 1226 l 721 1226 m 1083 1226 l 1083 1011 l 854 1011 l 854 1226 l 1083 1226 m 643 351 l 1 947 l 363 947 l 788 564 l 1213 947 l 1568 947 l 925 350 l 925 0 l 643 0 l 643 351 z "},"Ź":{"ha":1514,"x_min":65,"x_max":1450,"o":"m 806 1221 l 1129 1221 l 874 1011 l 622 1011 l 806 1221 m 1450 242 l 1450 0 l 65 0 l 65 221 l 692 569 q 1106 714 868 650 l 646 694 l 88 694 l 88 936 l 1443 936 l 1443 714 l 911 400 q 422 221 726 310 l 899 242 l 1450 242 z "},"ź":{"ha":1197,"x_min":53,"x_max":1144,"o":"m 669 1038 l 994 1038 l 724 826 l 472 826 l 669 1038 m 1144 181 l 1144 0 l 53 0 l 53 181 l 404 375 q 846 526 579 463 l 67 526 l 67 708 l 1144 708 l 1144 526 l 832 349 q 739 304 789 326 q 649 267 689 282 q 562 237 610 253 q 487 213 514 221 q 421 194 460 206 q 375 181 382 183 l 1144 181 z "},"Ż":{"ha":1514,"x_min":65,"x_max":1450,"o":"m 890 1238 l 890 1021 l 629 1021 l 629 1238 l 890 1238 m 1450 242 l 1450 0 l 65 0 l 65 221 l 692 569 q 1106 714 868 650 l 646 694 l 88 694 l 88 936 l 1443 936 l 1443 714 l 911 400 q 422 221 726 310 l 899 242 l 1450 242 z "},"ż":{"ha":1197,"x_min":53,"x_max":1144,"o":"m 738 1024 l 738 807 l 475 807 l 475 1024 l 738 1024 m 1144 181 l 1144 0 l 53 0 l 53 181 l 404 375 q 846 526 579 463 l 67 526 l 67 708 l 1144 708 l 1144 526 l 832 349 q 739 304 789 326 q 649 267 689 282 q 562 237 610 253 q 487 213 514 221 q 421 194 460 206 q 375 181 382 183 l 1144 181 z "},"Ž":{"ha":1514,"x_min":65,"x_max":1450,"o":"m 1110 1224 l 879 1011 l 642 1011 l 413 1224 l 649 1224 l 761 1126 l 874 1224 l 1110 1224 m 1450 242 l 1450 0 l 65 0 l 65 221 l 692 569 q 1106 714 868 650 l 646 694 l 88 694 l 88 936 l 1443 936 l 1443 714 l 911 400 q 422 221 726 310 l 899 242 l 1450 242 z "},"ž":{"ha":1197,"x_min":53,"x_max":1144,"o":"m 957 1038 l 726 825 l 489 825 l 260 1038 l 494 1038 l 608 940 l 721 1038 l 957 1038 m 1144 181 l 1144 0 l 53 0 l 53 181 l 404 375 q 846 526 579 463 l 67 526 l 67 708 l 1144 708 l 1144 526 l 832 349 q 739 304 789 326 q 649 267 689 282 q 562 237 610 253 q 487 213 514 221 q 421 194 460 206 q 375 181 382 183 l 1144 181 z "},"ƒ":{"ha":1378,"x_min":-107,"x_max":1497,"o":"m 511 108 l 547 315 l 188 315 l 225 526 l 585 526 l 618 711 q 774 979 651 897 q 1118 1061 896 1061 q 1497 1031 1297 1061 l 1450 829 q 1121 857 1267 857 q 951 819 1004 857 q 879 682 897 781 l 851 526 l 1257 526 l 1219 315 l 814 315 l 772 81 q 616 -186 740 -103 q 268 -269 492 -269 q -107 -239 93 -269 l -60 -37 q 276 -67 118 -67 q 441 -26 388 -67 q 511 108 494 14 z "},"Ǽ":{"ha":2493,"x_min":-17,"x_max":2432,"o":"m 1460 1221 l 1785 1221 l 1528 1011 l 1276 1011 l 1460 1221 m 354 0 l -17 0 l 1058 947 l 2432 947 l 2432 726 l 1494 726 l 1494 569 l 2404 569 l 2406 388 l 1496 388 l 1496 221 l 2432 221 l 2432 0 l 1214 0 l 1214 183 l 565 183 l 354 0 m 1214 750 l 786 379 l 1214 379 l 1214 750 z "},"ǽ":{"ha":2078,"x_min":56,"x_max":2031,"o":"m 1113 1033 l 1438 1033 l 1165 822 l 914 822 l 1113 1033 m 1513 188 q 1961 224 1740 188 l 2014 35 q 1489 -19 1797 -19 q 982 126 1106 -19 q 414 -19 733 -19 q 56 196 56 -19 q 166 365 56 314 q 518 415 276 415 l 904 415 q 815 489 888 467 q 567 511 742 511 q 143 467 343 511 l 106 678 q 599 726 333 726 q 1044 632 924 726 q 1472 726 1181 726 q 2031 408 2031 726 q 2024 294 2031 339 l 1171 294 q 1261 209 1188 231 q 1513 188 1335 188 m 1463 551 q 1250 525 1315 551 q 1169 431 1185 499 l 1771 431 q 1692 524 1758 496 q 1463 551 1626 551 m 307 222 q 338 176 307 188 q 453 164 368 164 q 703 189 599 164 q 919 261 807 214 q 917 281 917 275 l 464 278 q 341 267 375 278 q 307 222 307 256 z "},"Ș":{"ha":1406,"x_min":53,"x_max":1353,"o":"m 1353 269 q 1299 105 1353 165 q 1113 13 1246 44 q 749 -18 981 -18 q 388 3 576 -18 q 68 57 200 25 l 108 283 q 824 203 472 203 q 1036 218 986 203 q 1086 278 1086 233 q 1063 331 1086 318 q 978 350 1040 344 l 454 381 q 146 460 239 390 q 53 665 53 529 q 200 894 53 824 q 678 964 347 964 q 990 945 808 964 q 1307 897 1171 926 l 1261 685 q 613 743 967 743 q 372 730 425 743 q 319 672 319 717 q 346 622 319 635 q 442 606 372 610 l 958 575 q 1258 490 1163 564 q 1353 269 1353 417 m 546 -93 l 808 -93 l 621 -304 l 411 -304 l 546 -93 z "},"ș":{"ha":1140,"x_min":47,"x_max":1108,"o":"m 1108 201 q 992 28 1108 75 q 604 -19 875 -19 q 61 42 306 -19 l 106 211 q 651 156 365 156 q 820 165 776 156 q 864 203 864 174 q 835 242 864 232 q 718 257 806 251 l 372 276 q 121 339 194 286 q 47 508 47 392 q 174 683 47 636 q 575 729 300 729 q 1064 683 785 729 l 1025 513 q 514 558 772 558 q 336 549 381 558 q 292 511 292 540 q 305 481 292 492 q 338 468 318 471 q 400 463 358 465 l 746 442 q 1021 377 933 431 q 1108 201 1108 324 m 411 -79 l 674 -79 l 485 -290 l 275 -290 l 411 -79 z "},"Ț":{"ha":1464,"x_min":29,"x_max":1435,"o":"m 592 706 l 29 706 l 29 947 l 1435 947 l 1435 706 l 874 706 l 874 0 l 592 0 l 592 706 m 593 -79 l 857 -79 l 668 -290 l 458 -290 l 593 -79 z "},"ț":{"ha":1053,"x_min":13,"x_max":1038,"o":"m 164 333 l 164 497 l 13 497 l 13 708 l 171 708 l 217 892 l 428 892 l 428 708 l 981 708 l 981 497 l 428 497 l 428 361 q 474 236 428 269 q 644 203 519 203 q 988 243 786 203 l 1038 35 q 621 -19 818 -19 q 276 62 388 -19 q 164 333 164 143 m 432 -79 l 694 -79 l 507 -290 l 297 -290 l 432 -79 z "},"ȷ":{"ha":413,"x_min":-60,"x_max":338,"o":"m 213 -253 l -60 -253 q 75 138 75 -71 l 75 708 l 338 708 l 338 136 q 213 -253 338 -90 z "},"ˆ":{"ha":694,"x_min":-1,"x_max":696,"o":"m 696 814 l 460 814 l 347 911 l 235 814 l -1 814 l 228 1026 l 465 1026 l 696 814 z "},"ˇ":{"ha":694,"x_min":-1,"x_max":696,"o":"m 696 1026 l 465 814 l 228 814 l -1 1026 l 235 1026 l 347 931 l 460 1026 l 696 1026 z "},"˘":{"ha":729,"x_min":61,"x_max":668,"o":"m 475 1025 l 668 1025 q 365 803 668 803 q 61 1025 61 803 l 254 1025 q 278 956 254 976 q 365 935 303 935 q 451 956 428 935 q 475 1025 475 976 z "},"˙":{"ha":415,"x_min":76,"x_max":339,"o":"m 339 1014 l 339 797 l 76 797 l 76 1014 l 339 1014 z "},"˚":{"ha":551,"x_min":61,"x_max":490,"o":"m 276 801 q 61 957 61 801 q 276 1108 61 1108 q 490 957 490 1108 q 276 801 490 801 m 181 957 q 201 913 181 926 q 276 899 221 899 q 351 913 332 899 q 371 957 371 926 q 351 998 371 985 q 276 1011 332 1011 q 201 998 222 1011 q 181 957 181 985 z "},"˛":{"ha":499,"x_min":60,"x_max":436,"o":"m 236 1 l 372 0 q 260 -66 308 -31 q 213 -131 213 -101 q 253 -160 213 -160 q 397 -124 313 -160 l 436 -244 q 219 -299 325 -299 q 60 -183 60 -299 q 114 -76 60 -131 q 236 1 168 -22 z "},"˜":{"ha":694,"x_min":63,"x_max":632,"o":"m 63 821 l 63 967 q 210 1010 135 1010 q 367 988 269 1010 q 503 967 464 967 q 632 1008 561 967 l 632 857 q 507 817 575 817 q 356 840 456 817 q 207 863 257 863 q 63 821 133 863 z "},"˝":{"ha":915,"x_min":61,"x_max":854,"o":"m 206 1026 l 478 1026 l 264 817 l 61 817 l 206 1026 m 582 1026 l 854 1026 l 611 817 l 408 817 l 582 1026 z "},"̦":{"ha":525,"x_min":74,"x_max":471,"o":"m 208 -79 l 471 -79 l 283 -290 l 74 -290 l 208 -79 z "},"π":{"ha":1624,"x_min":58,"x_max":1554,"o":"m 504 0 l 243 0 l 243 497 l 58 497 l 58 708 l 1532 708 l 1532 497 l 1338 497 l 1338 289 q 1362 215 1338 238 q 1443 193 1386 193 q 1533 200 1489 193 l 1554 -3 q 1389 -18 1478 -18 q 1150 47 1224 -18 q 1076 263 1076 113 l 1076 497 l 504 497 l 504 0 z "},"Ẁ":{"ha":2285,"x_min":24,"x_max":2261,"o":"m 1039 1011 l 783 1221 l 1107 1221 l 1290 1011 l 1039 1011 m 446 0 l 24 947 l 342 947 l 635 257 l 974 947 l 1310 947 l 1657 257 l 1943 947 l 2261 947 l 1839 0 l 1478 0 l 1143 674 l 807 0 l 446 0 z "},"ẁ":{"ha":1894,"x_min":4,"x_max":1889,"o":"m 808 826 l 539 1038 l 864 1038 l 1060 826 l 808 826 m 774 708 l 1104 708 l 1378 214 l 1611 708 l 1889 708 l 1526 0 l 1224 0 l 933 518 l 643 0 l 342 0 l 4 708 l 278 708 l 506 217 l 774 708 z "},"Ẃ":{"ha":2285,"x_min":24,"x_max":2261,"o":"m 1188 1221 l 1513 1221 l 1257 1011 l 1004 1011 l 1188 1221 m 446 0 l 24 947 l 342 947 l 635 257 l 974 947 l 1310 947 l 1657 257 l 1943 947 l 2261 947 l 1839 0 l 1478 0 l 1143 674 l 807 0 l 446 0 z "},"ẃ":{"ha":1894,"x_min":4,"x_max":1889,"o":"m 999 1038 l 1324 1038 l 1053 826 l 800 826 l 999 1038 m 774 708 l 1104 708 l 1378 214 l 1611 708 l 1889 708 l 1526 0 l 1224 0 l 933 518 l 643 0 l 342 0 l 4 708 l 278 708 l 506 217 l 774 708 z "},"Ẅ":{"ha":2285,"x_min":24,"x_max":2261,"o":"m 1075 1226 l 1075 1011 l 846 1011 l 846 1226 l 1075 1226 m 1439 1226 l 1439 1011 l 1208 1011 l 1208 1226 l 1439 1226 m 446 0 l 24 947 l 342 947 l 635 257 l 974 947 l 1310 947 l 1657 257 l 1943 947 l 2261 947 l 1839 0 l 1478 0 l 1143 674 l 807 0 l 446 0 z "},"ẅ":{"ha":1894,"x_min":4,"x_max":1889,"o":"m 868 1032 l 868 817 l 639 817 l 639 1032 l 868 1032 m 1231 1032 l 1231 817 l 1001 817 l 1001 1032 l 1231 1032 m 774 708 l 1104 708 l 1378 214 l 1611 708 l 1889 708 l 1526 0 l 1224 0 l 933 518 l 643 0 l 342 0 l 4 708 l 278 708 l 506 217 l 774 708 z "},"Ẽ":{"ha":1400,"x_min":75,"x_max":1339,"o":"m 490 1015 l 490 1161 q 638 1204 563 1204 q 794 1183 697 1204 q 931 1161 890 1161 q 1058 1203 990 1161 l 1058 1051 q 935 1011 1001 1011 q 783 1034 883 1011 q 633 1057 683 1057 q 490 1015 561 1057 m 1339 0 l 75 0 l 75 947 l 1339 947 l 1339 726 l 357 726 l 357 569 l 1313 569 l 1313 388 l 357 388 l 357 221 l 1339 221 l 1339 0 z "},"ẽ":{"ha":1214,"x_min":47,"x_max":1167,"o":"m 331 828 l 331 974 q 476 1017 404 1017 q 633 994 536 1017 q 771 972 731 972 q 822 979 797 972 q 858 992 847 986 q 899 1014 868 997 l 899 863 q 774 824 843 824 q 623 847 722 824 q 474 869 524 869 q 331 828 399 869 m 649 188 q 1097 224 876 188 l 1150 35 q 625 -19 936 -19 q 185 69 322 -19 q 47 354 47 157 q 188 637 47 547 q 608 726 329 726 q 1167 408 1167 726 q 1160 294 1167 339 l 307 294 q 397 209 324 231 q 649 188 471 188 m 599 551 q 386 525 451 551 q 306 431 321 499 l 907 431 q 828 524 894 496 q 599 551 763 551 z "},"Ỳ":{"ha":1571,"x_min":1,"x_max":1568,"o":"m 685 1011 l 428 1221 l 753 1221 l 936 1011 l 685 1011 m 643 351 l 1 947 l 363 947 l 788 564 l 1213 947 l 1568 947 l 925 350 l 925 0 l 643 0 l 643 351 z "},"ỳ":{"ha":1279,"x_min":58,"x_max":1210,"o":"m 526 826 l 257 1038 l 582 1038 l 779 826 l 526 826 m 58 414 l 58 708 l 319 708 l 319 454 q 374 330 319 365 q 572 294 428 294 q 947 332 747 294 l 947 708 l 1210 708 l 1210 157 q 1074 -175 1210 -79 q 631 -271 938 -271 q 111 -206 347 -271 l 157 -6 q 649 -68 411 -68 q 899 -20 829 -68 q 960 144 968 28 l 957 151 q 510 79 710 79 q 162 158 265 79 q 58 414 58 236 z "},"Ỹ":{"ha":1571,"x_min":1,"x_max":1568,"o":"m 510 1015 l 510 1161 q 657 1204 582 1204 q 813 1183 717 1204 q 950 1161 910 1161 q 1078 1203 1010 1161 l 1078 1051 q 954 1011 1024 1011 q 803 1034 903 1011 q 653 1057 703 1057 q 510 1015 581 1057 m 643 351 l 1 947 l 363 947 l 788 564 l 1213 947 l 1568 947 l 925 350 l 925 0 l 643 0 l 643 351 z "},"ỹ":{"ha":1285,"x_min":58,"x_max":1210,"o":"m 375 828 l 375 974 q 522 1017 451 1017 q 679 994 582 1017 q 817 972 776 972 q 944 1014 869 972 l 944 863 q 819 824 889 824 q 669 847 768 824 q 519 869 569 869 q 375 828 446 869 m 58 414 l 58 708 l 319 708 l 319 454 q 374 330 319 365 q 572 294 428 294 q 947 332 747 294 l 947 708 l 1210 708 l 1210 157 q 1074 -175 1210 -79 q 631 -271 938 -271 q 111 -206 347 -271 l 157 -6 q 649 -68 411 -68 q 899 -20 829 -68 q 960 144 968 28 l 957 151 q 510 79 710 79 q 162 158 265 79 q 58 414 58 236 z "},"–":{"ha":801,"x_min":53,"x_max":747,"o":"m 747 268 l 53 268 l 53 474 l 747 474 l 747 268 z "},"—":{"ha":1496,"x_min":53,"x_max":1442,"o":"m 1442 268 l 53 268 l 53 474 l 1442 474 l 1442 268 z "},"‘":{"ha":399,"x_min":65,"x_max":360,"o":"m 360 1051 l 340 921 q 278 926 293 926 q 229 918 242 926 q 217 883 217 910 l 217 858 l 338 858 l 338 582 l 65 582 l 65 890 q 265 1061 65 1061 q 360 1051 319 1061 z "},"’":{"ha":399,"x_min":39,"x_max":333,"o":"m 39 572 l 58 703 q 121 697 90 697 q 169 706 157 697 q 181 740 181 714 l 181 764 l 61 764 l 61 1042 l 333 1042 l 333 733 q 133 563 333 563 q 39 572 79 563 z "},"‚":{"ha":399,"x_min":39,"x_max":333,"o":"m 39 -192 l 58 -62 q 121 -68 106 -68 q 169 -59 157 -68 q 181 -24 181 -50 l 181 0 l 61 0 l 61 278 l 333 278 l 333 -31 q 283 -158 333 -112 q 133 -203 233 -203 q 39 -192 86 -203 z "},"“":{"ha":760,"x_min":65,"x_max":719,"o":"m 360 1051 l 340 921 q 278 926 293 926 q 229 918 242 926 q 217 883 217 910 l 217 858 l 338 858 l 338 582 l 65 582 l 65 890 q 265 1061 65 1061 q 360 1051 319 1061 m 719 1051 l 701 921 q 638 926 654 926 q 590 918 601 926 q 578 883 578 910 l 578 858 l 697 858 l 697 582 l 426 582 l 426 890 q 626 1061 426 1061 q 719 1051 681 1061 z "},"”":{"ha":760,"x_min":39,"x_max":694,"o":"m 39 572 l 58 703 q 121 697 90 697 q 169 706 157 697 q 181 740 181 714 l 181 764 l 61 764 l 61 1042 l 333 1042 l 333 733 q 133 563 333 563 q 39 572 79 563 m 400 572 l 418 703 q 482 697 451 697 q 530 706 518 697 q 542 740 542 714 l 542 764 l 422 764 l 422 1042 l 694 1042 l 694 733 q 493 563 694 563 q 400 572 440 563 z "},"„":{"ha":760,"x_min":39,"x_max":694,"o":"m 39 -192 l 58 -62 q 121 -68 106 -68 q 169 -59 157 -68 q 181 -24 181 -50 l 181 0 l 61 0 l 61 278 l 333 278 l 333 -31 q 283 -158 333 -112 q 133 -203 233 -203 q 39 -192 86 -203 m 400 -192 l 418 -62 q 482 -68 468 -68 q 529 -59 517 -68 q 542 -24 542 -50 l 542 0 l 422 0 l 422 278 l 694 278 l 694 -31 q 644 -158 694 -112 q 493 -203 594 -203 q 400 -192 447 -203 z "},"†":{"ha":1125,"x_min":42,"x_max":1083,"o":"m 422 475 l 42 475 l 42 708 l 422 708 l 422 947 l 704 947 l 704 708 l 1083 708 l 1083 475 l 704 475 l 704 -232 l 422 -232 l 422 475 z "},"‡":{"ha":1125,"x_min":42,"x_max":1083,"o":"m 422 7 l 42 7 l 42 240 l 422 240 l 422 475 l 42 475 l 42 708 l 422 708 l 422 947 l 704 947 l 704 708 l 1083 708 l 1083 475 l 704 475 l 704 240 l 1083 240 l 1083 7 l 704 7 l 704 -232 l 422 -232 l 422 7 z "},"•":{"ha":618,"x_min":75,"x_max":543,"o":"m 489 298 q 462 277 489 298 q 310 257 435 257 q 130 298 185 257 q 75 433 75 339 q 130 567 75 526 q 310 608 185 608 q 489 567 435 608 q 543 433 543 526 q 489 298 543 339 z "},"…":{"ha":1178,"x_min":61,"x_max":1117,"o":"m 333 278 l 333 0 l 61 0 l 61 278 l 333 278 m 725 278 l 725 0 l 453 0 l 453 278 l 725 278 m 1117 278 l 1117 0 l 844 0 l 844 278 l 1117 278 z "},"‰":{"ha":2564,"x_min":53,"x_max":2513,"o":"m 53 743 q 141 914 53 861 q 407 967 229 967 q 673 915 586 967 q 760 743 760 863 q 672 572 760 625 q 407 519 585 519 q 141 573 229 519 q 53 743 53 626 m 504 0 l 260 0 l 1268 947 l 1513 947 l 504 0 m 560 678 q 579 687 560 678 q 599 743 599 696 q 559 808 599 790 q 407 826 519 826 q 254 808 294 826 q 214 743 214 790 q 253 678 214 696 q 407 661 293 661 q 560 678 521 661 m 1806 214 q 1894 386 1806 333 q 2160 439 1982 439 q 2425 386 2338 439 q 2513 214 2513 333 q 2425 43 2513 96 q 2160 -10 2338 -10 q 1894 44 1982 -10 q 1806 214 1806 97 m 1019 210 q 1108 382 1019 329 q 1374 435 1196 435 q 1639 382 1551 435 q 1726 210 1726 329 q 1638 40 1726 93 q 1374 -14 1550 -14 q 1108 40 1196 -14 q 1019 210 1019 93 m 2313 149 q 2332 158 2313 149 q 2351 214 2351 167 q 2312 279 2351 261 q 2160 297 2272 297 q 2007 279 2047 297 q 1967 214 1967 261 q 2006 149 1967 167 q 2160 132 2046 132 q 2313 149 2274 132 m 1526 145 q 1546 154 1526 145 q 1565 210 1565 163 q 1526 275 1565 257 q 1374 293 1486 293 q 1221 275 1261 293 q 1181 210 1181 257 q 1220 145 1181 163 q 1374 128 1260 128 q 1526 145 1488 128 z "},"‹":{"ha":611,"x_min":51,"x_max":560,"o":"m 560 -7 l 51 239 l 51 481 l 560 726 l 560 511 l 242 360 l 560 208 l 560 -7 z "},"›":{"ha":611,"x_min":51,"x_max":560,"o":"m 51 726 l 560 481 l 560 239 l 51 -7 l 51 208 l 368 360 l 51 511 l 51 726 z "},"⁄":{"ha":365,"x_min":-444,"x_max":810,"o":"m -199 0 l -444 0 l 564 947 l 810 947 l -199 0 z "},"⁰":{"ha":814,"x_min":53,"x_max":760,"o":"m 53 743 q 141 914 53 861 q 407 967 229 967 q 673 915 586 967 q 760 743 760 863 q 672 572 760 625 q 407 519 585 519 q 141 573 229 519 q 53 743 53 626 m 560 678 q 579 687 560 678 q 599 743 599 696 q 559 808 599 790 q 407 826 519 826 q 254 808 294 826 q 214 743 214 790 q 253 678 214 696 q 407 661 293 661 q 560 678 521 661 z "},"⁴":{"ha":817,"x_min":49,"x_max":778,"o":"m 668 494 l 519 494 l 519 563 l 49 563 l 49 664 l 519 918 l 668 918 l 668 672 l 778 672 l 778 563 l 668 563 l 668 494 m 226 660 l 226 656 q 436 672 318 672 l 519 672 l 519 783 l 417 732 q 226 660 271 674 z "},"€":{"ha":1599,"x_min":4,"x_max":1551,"o":"m 171 472 l 171 497 l 4 497 l 4 650 l 197 650 q 415 883 249 806 q 885 961 581 961 q 1551 893 1263 961 l 1506 679 q 894 740 1194 740 q 510 650 599 740 l 1107 650 l 1107 497 l 453 497 l 453 472 l 453 446 l 1107 446 l 1107 292 l 511 292 q 894 204 600 204 q 1506 264 1188 204 l 1551 50 q 885 -18 1263 -18 q 416 59 582 -18 q 197 292 250 136 l 4 292 l 4 446 l 171 446 l 171 472 z "},"ℓ":{"ha":932,"x_min":33,"x_max":826,"o":"m 653 486 l 296 317 q 334 244 300 265 q 450 224 368 224 q 696 256 578 224 l 739 25 q 446 -18 610 -18 q 134 66 235 -18 q 33 331 33 150 l 33 524 q 144 839 33 724 q 496 954 254 954 q 826 731 826 954 q 653 486 826 567 m 294 556 l 294 454 l 508 556 q 593 650 593 596 q 567 707 593 689 q 479 725 542 725 q 294 556 294 725 z "},"™":{"ha":2919,"x_min":44,"x_max":2844,"o":"m 1632 406 l 1343 406 l 1343 947 l 1715 947 l 2094 592 l 2474 947 l 2844 947 l 2844 406 l 2556 406 l 2556 708 l 2240 406 l 1949 406 l 1632 708 l 1632 406 m 485 724 l 44 724 l 44 947 l 1215 947 l 1215 724 l 775 724 l 775 406 l 485 406 l 485 724 z "},"∂":{"ha":1354,"x_min":60,"x_max":1285,"o":"m 1285 499 q 1108 117 1285 247 q 624 -14 932 -14 q 203 70 346 -14 q 60 339 60 154 q 94 485 60 425 q 193 581 128 546 q 342 631 258 615 q 535 646 425 646 q 1024 549 793 646 q 915 732 1013 671 q 621 793 818 793 q 311 756 485 793 l 272 983 q 657 1029 460 1029 q 1285 499 1285 1029 m 321 354 q 388 238 321 272 q 625 203 456 203 q 899 257 801 203 q 1018 432 996 311 q 560 497 772 497 q 379 464 438 497 q 321 354 321 431 z "},"∏":{"ha":1724,"x_min":42,"x_max":1683,"o":"m 494 0 l 213 0 l 213 694 l 42 694 l 42 936 l 1683 936 l 1683 694 l 1501 694 l 1501 0 l 1219 0 l 1219 694 l 494 694 l 494 0 z "},"∑":{"ha":1435,"x_min":61,"x_max":1378,"o":"m 1378 -29 l 1378 -250 l 61 -250 l 61 38 l 925 365 l 61 631 l 61 947 l 1378 947 l 1378 726 l 376 726 l 1128 461 l 1128 265 l 385 -29 l 1378 -29 z "},"−":{"ha":1049,"x_min":81,"x_max":968,"o":"m 968 358 l 81 358 l 81 560 l 968 560 l 968 358 z "},"∕":{"ha":629,"x_min":-312,"x_max":942,"o":"m -68 0 l -312 0 l 696 947 l 942 947 l -68 0 z "},"√":{"ha":1214,"x_min":36,"x_max":1188,"o":"m 1188 943 l 683 0 l 415 0 l 253 318 l 36 318 l 36 531 l 393 531 l 547 225 l 929 943 l 1188 943 z "},"∞":{"ha":1375,"x_min":51,"x_max":1324,"o":"m 340 139 q 131 215 210 139 q 51 432 51 292 q 133 649 51 572 q 343 725 215 725 q 528 679 447 725 q 688 553 608 633 q 849 679 769 633 q 1031 725 929 725 q 1242 649 1160 725 q 1324 432 1324 572 q 1244 215 1324 292 q 1035 139 1165 139 q 686 299 846 139 q 340 139 521 139 m 1006 546 q 807 426 921 546 q 1015 321 918 321 q 1128 433 1128 321 q 1006 546 1128 546 m 360 321 q 565 428 453 321 q 465 515 510 486 q 368 544 421 544 q 247 432 247 544 q 360 321 247 321 z "},"∫":{"ha":1157,"x_min":-86,"x_max":1243,"o":"m 925 857 q 758 818 806 857 q 710 682 710 779 l 710 8 q 219 -361 710 -361 q -86 -329 103 -361 l -36 -135 q 232 -158 132 -158 q 399 -119 351 -158 q 447 18 447 -81 l 447 692 q 938 1061 447 1061 q 1243 1029 1054 1061 l 1193 835 q 925 857 1035 857 z "},"≈":{"ha":1056,"x_min":81,"x_max":975,"o":"m 322 567 q 86 500 200 567 l 81 703 q 331 775 192 775 q 531 734 406 775 q 740 693 656 693 q 969 774 843 693 l 975 581 q 740 494 857 494 q 521 531 646 494 q 322 567 396 567 m 322 254 q 86 168 215 254 l 81 371 q 331 453 207 453 q 535 417 406 453 q 750 382 665 382 q 853 397 807 382 q 969 451 900 413 l 975 249 q 750 172 871 172 q 533 213 658 172 q 322 254 408 254 z "},"≠":{"ha":1039,"x_min":61,"x_max":978,"o":"m 978 190 l 454 190 l 389 75 l 224 75 l 289 190 l 61 190 l 61 392 l 401 392 l 472 517 l 61 517 l 61 717 l 585 717 l 650 832 l 814 832 l 749 717 l 978 717 l 978 517 l 638 517 l 567 392 l 978 392 l 978 190 z "},"≤":{"ha":1010,"x_min":61,"x_max":949,"o":"m 949 215 l 61 407 l 61 688 l 949 881 l 949 656 l 268 549 l 949 440 l 949 215 m 949 8 l 61 8 l 61 210 l 949 210 l 949 8 z "},"≥":{"ha":1010,"x_min":61,"x_max":949,"o":"m 949 688 l 949 407 l 61 215 l 61 440 l 742 549 l 61 656 l 61 881 l 949 688 m 949 210 l 949 8 l 61 8 l 61 210 l 949 210 z "},"◊":{"ha":1129,"x_min":39,"x_max":1090,"o":"m 1090 546 l 1090 360 l 657 0 l 474 0 l 39 360 l 39 546 l 474 906 l 657 906 l 1090 546 m 565 703 l 269 453 l 565 203 l 860 453 l 565 703 z "},"":{"ha":399,"x_min":67,"x_max":314,"o":"m 186 696 l 186 715 l 85 715 l 85 947 l 314 947 l 314 690 q 146 546 314 546 q 67 554 103 546 l 82 664 q 136 660 114 660 q 176 667 167 660 q 186 696 186 674 z "},"ﬁ":{"ha":1260,"x_min":17,"x_max":1185,"o":"m 157 0 l 157 497 l 17 497 l 17 708 l 157 708 q 647 1061 169 1061 q 1040 1022 825 1061 l 996 828 q 636 857 789 857 q 469 824 517 857 q 421 711 421 792 l 421 708 l 1185 708 l 1185 0 l 922 0 l 922 497 l 421 497 l 421 0 l 157 0 z "},"ﬂ":{"ha":1271,"x_min":17,"x_max":1196,"o":"m 157 0 l 157 497 l 17 497 l 17 708 l 157 708 q 281 977 163 893 q 632 1061 399 1061 q 957 1042 789 1061 l 1196 1042 l 1196 0 l 933 0 l 933 842 q 639 857 775 857 q 469 824 518 857 q 421 711 421 792 l 421 708 l 810 708 l 810 497 l 421 497 l 421 0 l 157 0 z "}}}
